<?xml version="1.0" encoding="UTF-8"?>
<svg id="_레이어_1" data-name="레이어 1" xmlns="http://www.w3.org/2000/svg" viewBox="0 0 342.94 112.1">
    <defs>
        <style>
            .cls-1 {
            fill: #000;
            stroke-width: 0px;
            }
        </style>
    </defs>
    <g id="_그룹_301" data-name="그룹 301">
        <path id="_패스_1" data-name="패스 1" class="cls-1"
              d="M188.4,103.2l3.25-8.9h-24.94c-6.81,0-7.39-3.03-6.1-6.58,1.51-4.15,4.15-6.78,10.96-6.78h64.89c6.81,0,7.54,2.63,6.03,6.78-1.29,3.54-4.07,6.58-10.89,6.58h-24.84l-3.25,8.9c-2.53,6.98-6.79,8.9-10.8,8.9s-6.78-2.12-4.31-8.9ZM209.23,66.99c-9.46,5.76-20.13,9.26-31.17,10.22-3.66.3-8.68-.3-7.46-5.66,1.03-4.76,5.08-8.27,9.94-8.6,9.44-1.32,18.99-2.93,24.58-8.8h-16.53c-7.19,0-7.35-3.13-6.18-6.37,1.47-4.05,3.79-6.58,10.89-6.58h50.04c7.1,0,7.59,2.53,6.1,6.58-1.18,3.25-3.62,6.37-10.82,6.37h-15.59c.03,1.35.56,2.65,1.48,3.64,3.29,3.54,8.15,5.06,15.21,5.66,4.8.41,7.41,2.73,4.88,7.89-1.51,3.95-5.37,6.51-9.6,6.37-11.98-.91-21.64-4.65-25.77-10.72h0ZM203.7,36.55c-4.11,0-4.2-2.83-3.17-5.66.72-3.47,3.82-5.94,7.36-5.87h30.81c4.39,0,4.27,2.63,3.09,5.87-.89,3.31-3.86,5.62-7.29,5.66h-30.81Z"/>
        <path id="_패스_2" data-name="패스 2" class="cls-1"
              d="M253.38,93.17c-6.63,0-6.82-2.02-5.5-5.66l4.09-11.23c1.08-2.93,3.11-4.96,8.9-4.96h46.59l1.08-2.94h-47.43c-5.23,0-5.95-1.62-4.8-4.75.88-2.43,3-4.65,8.23-4.65h55.55c6.15,0,5.97,2.83,5.09,5.26l-4.12,11.33c-1.14,3.14-2.89,4.86-8.86,4.86h-46.59l-1.18,3.25h47.23c6.72,0,7.98,1.42,6.77,4.75-1.29,3.54-3.13,4.75-10.23,4.75h-54.81ZM259.17,55.24c-4.39,0-5.65-1.42-4.34-5.06,1.21-3.27,4.48-5.31,7.95-4.96h27.36l1.51-4.15h-4.58c-12.42,0-17.16-4.15-14.82-10.62l1.21-3.34c.1-.32.24-.63.42-.91-4.61-.41-4.88-2.22-3.89-4.96,1.21-3.34,3.28-5.16,9.91-5.16h56.39c6.63,0,7.37,1.81,6.15,5.16-.92,2.53-2.65,4.45-7.41,4.96-.12.61-.27,1.22-.48,1.81l-.88,2.43c-2.32,6.37-10.03,10.62-22.45,10.62h-4.48l-1.51,4.15h27.26c4.39,0,5.42,2.02,4.36,4.96-1.03,3.45-4.45,5.61-8,5.06h-69.7ZM312.52,31.77c1.91.1,3.82-.18,5.62-.81.9-.3,1.64-.95,2.06-1.81l.15-.41c.33-.75.04-1.62-.67-2.02-1.65-.69-3.44-.97-5.21-.81h-19.61c-1.97-.1-3.94.17-5.8.81-.96.36-1.73,1.09-2.14,2.02l-.15.41c-.26.7.05,1.48.72,1.81,1.55.68,3.25.96,4.93.81h20.08ZM291.56,11.95c-4.02,0-4.03-2.53-3.18-4.86.75-3.1,3.6-5.23,6.79-5.06h34.45c4.11,0,4.14,2.23,3.11,5.06-.84,2.98-3.62,4.99-6.72,4.86h-34.45Z"/>
        <g id="_그룹_6" data-name="그룹 6">
            <g id="_그룹_4" data-name="그룹 4">
                <path id="_패스_3" data-name="패스 3" class="cls-1"
                      d="M97.97,79.75c.44-.43.91-.83,1.4-1.21.52-.4,1.14-.87,1.87-1.41,3-2.15,5.79-4.21,8.39-6.19s5.11-4.04,7.54-6.19c2.42-2.15,4.88-4.46,7.36-6.94s5.13-5.3,7.95-8.46h-16c-2.35,0-3.69-.5-4.03-1.51-.29-1.5-.1-3.05.56-4.43.47-1.66,1.38-3.16,2.63-4.34,1.51-.87,3.25-1.26,4.98-1.11h18.92l4.95-13.59h-15.4c-2.15,0-3.46-.44-3.95-1.31-.47-1.44-.34-3,.36-4.34.48-1.7,1.46-3.22,2.8-4.38,1.46-.87,3.15-1.27,4.85-1.16h15.4l2.78-7.65c.5-1.79,1.6-3.36,3.12-4.43,1.42-.77,3.02-1.16,4.63-1.11,1.35-.12,2.7.27,3.77,1.11.77.74.75,2.21-.05,4.43l-2.78,7.65h16.81c1.39-.19,2.8.23,3.86,1.16.62.77.55,2.23-.23,4.38-.93,3.44-4.13,5.78-7.69,5.64h-16.81l-4.95,13.59h20.34c2.28,0,3.67.39,4.16,1.16.49.77.35,2.23-.44,4.38-.53,1.67-1.48,3.18-2.75,4.38-1.48,1.08-3.29,1.59-5.11,1.45h-17.51c.6,3.15,1.27,6.04,2.04,8.66.7,2.46,1.57,4.86,2.61,7.2.94,2.1,1.99,4.15,3.15,6.15,1.12,1.91,2.3,3.74,3.54,5.48,1.12,1.35,1.65,3.09,1.45,4.83-.59,1.96-1.78,3.69-3.41,4.93-1.2,1.46-2.98,2.31-4.87,2.31-1.59-.34-2.95-1.37-3.71-2.82-2.13-3.14-3.91-6.49-5.31-10.02-1.54-3.97-2.75-8.06-3.62-12.23l-9.85,27.08c-.52,1.79-1.64,3.36-3.17,4.43-1.4.82-3,1.24-4.62,1.21-1.38.15-2.75-.29-3.79-1.21-.72-.8-.69-2.28.1-4.43l9.38-25.77c-3.77,3.89-7.68,7.58-11.73,11.07-4.05,3.49-8.62,7.05-13.7,10.67-1.82,1.49-4.01,2.45-6.34,2.77-1.62.03-2.65-.92-3.08-2.87l-.08-.6c-1.07,1.46-2.53,2.59-4.21,3.25-2.05.7-4.22,1.03-6.39.95h-8.35c-1.55.04-3.11-.1-4.63-.4-1.01-.17-1.89-.78-2.41-1.66-.5-1.09-.63-2.31-.36-3.47.38-1.99.94-3.95,1.67-5.84l22.64-62.21c.62-1.77,1.4-3.49,2.32-5.13.71-1.29,1.66-2.43,2.79-3.37,1.07-.85,2.3-1.46,3.62-1.81,1.63-.4,3.3-.58,4.98-.55h8.62c1.56-.05,3.12.14,4.63.55,1,.26,1.85.91,2.36,1.81.46,1.06.57,2.24.33,3.37-.3,1.75-.78,3.47-1.42,5.13l-22.9,62.95ZM109.56,19.16c.22-.61.26-.99.12-1.16-.14-.17-.48-.25-1.02-.25h-4.43c-.38-.04-.76.05-1.08.25-.29.33-.5.73-.62,1.16l-21.1,57.98c-.17.36-.24.76-.22,1.16.05.23.34.36.88.36h4.43c.43.03.85-.08,1.22-.3.35-.33.61-.74.74-1.21l21.09-57.99Z"/>
            </g>
            <g id="_그룹_5" data-name="그룹 5">
                <path id="_패스_4" data-name="패스 4" class="cls-1"
                      d="M76.01,78.21c0,2.34-1.9,4.24-4.24,4.24H30.9c-2.34,0-4.24-1.9-4.24-4.24h0c0-2.34,1.9-4.24,4.24-4.24h40.87c2.34,0,4.24,1.9,4.24,4.24h0Z"/>
                <path id="_패스_5" data-name="패스 5" class="cls-1"
                      d="M99.73,22.01c0,2.2-1.78,3.98-3.98,3.98h-37.39c-2.2,0-3.98-1.78-3.98-3.98h0c0-2.2,1.78-3.98,3.98-3.98h37.38c2.2,0,3.98,1.78,3.98,3.98h.01Z"/>
                <path id="_패스_6" data-name="패스 6" class="cls-1"
                      d="M99.28,48.6c0,1.4-1.13,2.53-2.53,2.53h-52.42c-1.4,0-2.53-1.13-2.53-2.53h0c0-1.4,1.13-2.53,2.53-2.53h52.42c1.4,0,2.53,1.13,2.53,2.53Z"/>
                <path id="_패스_7" data-name="패스 7" class="cls-1"
                      d="M82.5,64.88c0,2.53-3.16,4.58-7.07,4.58H7.06c-3.9,0-7.06-2.05-7.06-4.58h0c0-2.53,3.16-4.58,7.06-4.58h68.36c3.9,0,7.07,2.05,7.07,4.58Z"/>
                <path id="_패스_8" data-name="패스 8" class="cls-1"
                      d="M99.79,38.68c0,1.27-1.03,2.29-2.29,2.3H31.37c-1.27,0-2.29-1.03-2.29-2.3h0c0-1.26,1.02-2.28,2.28-2.28h66.14c1.26,0,2.29,1.02,2.29,2.28h0Z"/>
                <path id="_패스_9" data-name="패스 9" class="cls-1"
                      d="M51.42,27.55c0,2.12-1.72,3.84-3.84,3.84h-8.85c-2.12,0-3.83-1.72-3.84-3.84h0c0-2.12,1.71-3.84,3.82-3.84h8.86c2.12,0,3.84,1.71,3.84,3.83h0Z"/>
            </g>
        </g>
    </g>
</svg>