<?xml version="1.0" encoding="UTF-8"?>
<svg id="_레이어_1" data-name="레이어 1" xmlns="http://www.w3.org/2000/svg" viewBox="0 0 16.46 18.49">
  <defs>
    <style>
      .cls-1 {
        fill: #afafaf;
        stroke-width: 0px;
      }
    </style>
  </defs>
  <path class="cls-1" d="M8.3,9.33c-2.57.04-4.69-2.02-4.73-4.6S5.59.04,8.16,0s4.69,2.02,4.73,4.59-2.02,4.69-4.6,4.73ZM8.19,2c-1.47.02-2.65,1.23-2.62,2.7s1.23,2.65,2.7,2.62,2.65-1.23,2.62-2.7-1.23-2.65-2.7-2.62Z"/>
  <path class="cls-1" d="M16.46,18.49h-2v-2.33c0-2.2-1.79-3.99-3.99-3.99h-4.48c-2.2,0-3.99,1.79-3.99,3.99v2.33H0v-2.33c0-3.3,2.69-5.99,5.99-5.99h4.48c3.3,0,5.99,2.69,5.99,5.99v2.33Z"/>
</svg>