<?xml version="1.0" encoding="UTF-8"?>
<svg id="_레이어_1" data-name="레이어 1" xmlns="http://www.w3.org/2000/svg" viewBox="0 0 70.24 70.5">
  <defs>
    <style>
      .cls-1 {
        fill: #c7c7c7;
        stroke-width: 0px;
      }
    </style>
  </defs>
  <g id="_그룹_1929" data-name="그룹 1929">
    <g id="_그룹_1928" data-name="그룹 1928">
      <path id="_패스_5303" data-name="패스 5303" class="cls-1" d="M34.65,5.83c1.81,0,3.61.18,5.39.53,10.26,2,17.4,7.29,21.72,16.13l-3.32-.42c-1.87-.23-3.75-.47-5.62-.69-3.74-.46-7.6-.93-11.39-1.43-.58-.08-1.17-.12-1.76-.12-6.61-.13-12.06,5.13-12.19,11.73,0,.17,0,.33,0,.5,0,.97,0,1.95,0,2.92,0,1.83.02,3.56-.02,5.29-.24,5.09,2.65,9.81,7.29,11.92,6.72,3.33,13.55,6.75,20.15,10.06l2.48,1.25c-.23.16-.48.3-.73.42-.6.24-1.21.44-1.83.58l-.62.17h-.74c-.19-.05-.37-.09-.55-.14-.59-.13-1.17-.3-1.74-.5-12.5-5.13-24.99-10.27-37.47-15.43l-7.35-3.03c-.16-.06-.31-.14-.44-.26-.06-.16-.08-.34-.07-.51v-1.14c0-2.72-.01-5.45,0-8.17.03-4.21,1-8.36,2.85-12.15,1.94-4.14,4.7-7.83,8.12-10.87,2.29-2.1,4.96-3.75,7.86-4.85,3.2-1.18,6.57-1.8,9.98-1.81M16.66,45.91c4.65-.01,8.41-3.8,8.39-8.45s-3.8-8.41-8.45-8.39c-4.65.01-8.41,3.8-8.39,8.45.01,4.63,3.76,8.38,8.39,8.39h.05M34.65,0c-4.09.01-8.14.75-11.98,2.17-3.59,1.35-6.89,3.38-9.73,5.96-4.01,3.55-7.25,7.89-9.52,12.74C1.21,25.42.05,30.41,0,35.47c-.02,3.12,0,6.24,0,9.36-.11,2.73,1.56,5.21,4.12,6.14,14.94,6.16,29.88,12.31,44.83,18.46,1.23.43,2.47.79,3.74,1.07h2.34c1.41-.34,2.8-.79,4.15-1.33,3.39-1.63,5.32-4.5,6.35-8.09-.24-.12-.45-.25-.67-.36-9.17-4.59-18.34-9.2-27.53-13.75-2.62-1.09-4.25-3.74-4.05-6.57.06-2.78,0-5.55.01-8.32-.12-3.42,2.55-6.29,5.98-6.42.13,0,.25,0,.38,0,.33,0,.67.02,1,.07,5.68.75,11.37,1.42,17.05,2.13,3.84.48,7.68.96,11.52,1.45.27.03.54.05,1,.09-.48-1.78-.82-3.49-1.41-5.1C64.08,11.18,54.8,3.29,41.15.63c-2.14-.42-4.32-.63-6.5-.63M16.66,40.08h-.01c-1.44-.03-2.59-1.23-2.56-2.67.03-1.4,1.16-2.53,2.57-2.56h0c1.44.03,2.59,1.22,2.56,2.67-.03,1.4-1.16,2.54-2.56,2.56"/>
      <path id="_패스_5304" data-name="패스 5304" class="cls-1" d="M68.19,55.19c-.88,1.59-1.75,1.85-3.4,1.03l-19.78-9.89c-.32-.16-.58-.27-.57-.74.02-4.84.01-9.67.02-14.51,0-.09.01-.17.03-.37l23.71,2.98v21.5Z"/>
      <path id="_패스_5305" data-name="패스 5305" class="cls-1" d="M41.27,30.22v13.92c-1.21-.7-2.37-1.28-3.42-2.03-.34-.37-.52-.86-.49-1.36-.04-2.9-.03-5.8-.02-8.7-.06-1.07.77-1.99,1.84-2.05.11,0,.21,0,.32,0,.59.03,1.17.14,1.77.21"/>
    </g>
  </g>
</svg>