<?xml version="1.0" encoding="UTF-8"?>
<svg id="_레이어_1" data-name="레이어 1" xmlns="http://www.w3.org/2000/svg" viewBox="0 0 70.98 75.13">
  <defs>
    <style>
      .cls-1 {
        fill: #cbcbcb;
        stroke-width: 0px;
      }
    </style>
  </defs>
  <g id="_그룹_1182" data-name="그룹 1182">
    <path id="_패스_4560" data-name="패스 4560" class="cls-1" d="M61,0H8.36C3.74,0,0,3.74,0,8.36v58.42c0,4.61,3.74,8.35,8.36,8.36h45.48c4.61,0,8.35-3.74,8.36-8.36V23.85c4.94-.54,8.79-4.38,8.79-9.03v-5.72c0-5.02-4.48-9.1-9.98-9.1M55.86,66.77c0,1.12-.91,2.02-2.02,2.02H8.36c-1.12,0-2.02-.91-2.02-2.02V8.36c0-1.12.91-2.02,2.02-2.02h47.5v60.44ZM64.65,14.83c-.15,1.31-1.15,2.37-2.46,2.59V6.51c1.3.23,2.3,1.29,2.46,2.6v5.72Z"/>
    <path id="_패스_4561" data-name="패스 4561" class="cls-1" d="M15.19,19.23h16.75c1.79.06,3.3-1.33,3.37-3.13-.07-1.79-1.58-3.19-3.37-3.13H15.19c-1.79-.06-3.3,1.33-3.37,3.13.07,1.79,1.58,3.19,3.37,3.13"/>
    <path id="_패스_4562" data-name="패스 4562" class="cls-1" d="M15.19,40.31h31.92c1.8.07,3.3-1.33,3.38-3.13-.07-1.8-1.58-3.2-3.38-3.13H15.19c-1.79-.06-3.3,1.34-3.37,3.13.07,1.79,1.58,3.19,3.37,3.13"/>
    <path id="_패스_4563" data-name="패스 4563" class="cls-1" d="M15.19,51.32h31.92c1.73.13,3.23-1.16,3.37-2.89.13-1.73-1.16-3.23-2.89-3.37-.16-.01-.32-.01-.47,0H15.19c-1.73-.13-3.23,1.16-3.37,2.89-.13,1.73,1.16,3.23,2.89,3.37.16.01.32.01.47,0"/>
    <path id="_패스_4564" data-name="패스 4564" class="cls-1" d="M15.19,62.33h31.92c1.73.13,3.24-1.16,3.37-2.88.13-1.73-1.16-3.24-2.88-3.37-.16-.01-.33-.01-.49,0H15.19c-1.73-.13-3.24,1.16-3.37,2.88-.13,1.73,1.16,3.24,2.88,3.37.16.01.33.01.49,0"/>
  </g>
</svg>