<?xml version="1.0" encoding="UTF-8"?>
<svg id="_레이어_1" data-name="레이어 1" xmlns="http://www.w3.org/2000/svg" viewBox="0 0 83 67.1">
  <defs>
    <style>
      .cls-1 {
        fill: #c7c7c7;
        stroke-width: 0px;
      }
    </style>
  </defs>
  <g id="_그룹_1925" data-name="그룹 1925">
    <path id="_패스_5301" data-name="패스 5301" class="cls-1" d="M47.99,37.1c-.02-1.15-.95-2.08-2.1-2.1h-1.24c-.15-.06-.32-.06-.47,0h-27.85c-.15-.06-.31-.06-.46,0h-1.24c-1.15.02-2.08.95-2.1,2.1v1.24c-.06.15-.06.32,0,.47v9.68c-.06.15-.06.31,0,.46v1.24c.02,1.15.95,2.08,2.1,2.1h1.24c.07.03.15.05.23.05.08,0,.16-.01.23-.05h29.55c1.16,0,2.1-.94,2.1-2.1v-11.38c.06-.15.06-.32,0-.47v-1.24ZM43.79,48.08h-27.06v-8.89h27.06v8.89Z"/>
    <path id="_패스_5302" data-name="패스 5302" class="cls-1" d="M82.92,22.53l-3.93-18.83c.03-.17,0-.35-.1-.49l-.33-1.59c-.22-.95-1.07-1.62-2.04-1.62H7.69c-.95,0-1.77.64-2.03,1.55L.88,19.39c-.08.31-.17.63-.26.94-.18.64-.37,1.3-.52,1.97-.16.96-.09,1.95.2,2.87.43,2.17,1.82,4.03,3.79,5.05.33.15.68.28,1.03.38v32.63c-.06.15-.06.31,0,.46v1.24c.02,1.15.95,2.08,2.1,2.1h1.24c.15.06.32.06.47,0h46.03c.07.03.15.05.23.04.08,0,.16-.01.23-.04h11.93c.91,0,1.82.01,2.75.03.92.01,1.85.02,2.79.02,1.06,0,1.99-.02,2.8-.05h.1c1.16,0,2.1-.94,2.1-2.1V30.46c3.11-1.07,5.18-4.03,5.11-7.32,0-.2-.03-.4-.08-.6M65.43,4.2l.91,8.39.7,6.47c.06.58.12,1.16.18,1.75.02.18.04.37.06.56.06.61.13,1.23.19,1.84v.03c-.12.62-.34,1.22-.67,1.77-.18.29-.4.56-.66.79-1.19,1.03-2.92,1.19-4.27.38-.39-.32-.71-.72-.94-1.17-.32-.6-.51-1.26-.56-1.94l-.04-2.26-.07-4.58c-.02-1.53-.04-3.07-.06-4.61-.03-2.43-.06-4.93-.12-7.41h5.34ZM55.86,4.2l.26,16.47v.13l.04,2.2c0,.08,0,.15,0,.23v.03s-.02.1-.03.15c-.03.17-.07.33-.12.5-.1.38-.25.75-.44,1.1l-.02.05c-.44.8-1.22,1.37-2.12,1.55-1.48.41-3.04-.25-3.78-1.59-.2-.35-.35-.72-.45-1.11-.09-.27-.14-.54-.15-.82h0c.04-.71.03-1.41.01-2.1v-.17c0-.27-.01-.54-.01-.81V4.2h6.81ZM37.74,16.18c0-1.51,0-3.03.02-4.54v-.05c.01-2.42.03-4.91,0-7.39h7.09v17.6c0,.34,0,.69,0,1.05,0,.07,0,.14,0,.2l-.02.26v.04c-.07.45-.19.88-.36,1.3-.05.12-.11.24-.17.36-.44.85-1.24,1.44-2.18,1.61-1.46.38-3-.24-3.8-1.52l-.04-.08c-.22-.43-.38-.89-.47-1.37l-.04-.18c-.03-.12-.04-.24-.04-.36v-6.92h0ZM26.62,19.8l.88-15.6h6.05v18.79c-.15.71-.4,1.39-.76,2.02-.45.84-1.25,1.43-2.19,1.61-1.38.3-2.8-.36-3.45-1.61-.24-.4-.43-.84-.56-1.29-.06-.22-.11-.43-.15-.64.07-.72.1-1.44.13-2.15v-.13c.02-.34.03-.68.05-1.01M18.04,5.5c.02-.14.04-.27.07-.4l.15-.9h5.03l-.82,14.61-.11,2-.02.33-.03.46c-.02.3-.04.61-.05.93l-.03.5v.12c-.08.44-.19.87-.34,1.29-.08.2-.17.39-.28.58-.41.78-1.13,1.35-1.98,1.57-1.44.43-2.98-.14-3.8-1.4-.03-.06-.07-.11-.1-.17-.23-.44-.41-.91-.52-1.39-.03-.14-.06-.29-.08-.44l.39-2.38,2.52-15.31ZM4.34,23.99c-.03-.16-.06-.32-.07-.49,0-.11-.02-.24-.03-.38.17-.6.33-1.21.5-1.85l.24-.91L9.3,4.2h4.7l-.46,2.8c-.31,1.89-.62,3.79-.94,5.68l-.31,1.84c-.22,1.3-.43,2.6-.64,3.9-.06.33-.1.66-.15.99l-.22,1.36-.27,1.68c-.05.15-.07.31-.08.47-.04.21-.09.42-.14.63-.12.51-.31,1-.57,1.45-.23.39-.53.73-.89,1.01-.14.11-.29.21-.45.29-.85.43-1.83.51-2.74.24-.41-.14-.77-.4-1.02-.74-.39-.54-.65-1.16-.78-1.81M55.81,39.2h11.54v23.65h-11.54v-23.65ZM73.68,62.85h-2.13v-24.05c.06-.15.06-.31,0-.46v-1.24c-.02-1.15-.95-2.08-2.1-2.1h-1.24c-.15-.06-.32-.06-.47,0h-12.33c-.15-.06-.32-.06-.47,0h-1.24c-1.15.02-2.08.95-2.1,2.1v1.24c-.06.15-.06.31,0,.46v24.04H10.01c-.22,0-.44,0-.69-.02V30.6c1.41-.38,2.67-1.16,3.65-2.25.92,1.07,2.13,1.85,3.48,2.25.72.2,1.47.3,2.22.3,1.85.02,3.64-.63,5.03-1.83.24-.22.47-.45.68-.7.94,1.15,2.24,1.97,3.68,2.32.59.14,1.18.21,1.79.21,2.17,0,4.23-.92,5.67-2.53.86,1.01,1.98,1.76,3.24,2.17.82.26,1.67.39,2.53.39,1.77.03,3.49-.55,4.88-1.64.28-.23.55-.49.79-.77.99,1.14,2.34,1.92,3.82,2.22.57.11,1.15.17,1.73.17,2.18.02,4.27-.88,5.74-2.49.26.31.55.6.86.86,1.26,1.05,2.85,1.62,4.49,1.62.3,0,.6-.02.9-.05,1.87-.23,3.6-1.08,4.92-2.43,1.1,1.26,2.61,2.1,4.26,2.35v32.09ZM78.43,24.79c-.13.31-.32.6-.54.86-.52.58-1.23.94-2,1.01-.74.1-1.5.02-2.2-.24-.55-.21-1.01-.58-1.33-1.07-.06-.1-.12-.21-.17-.32-.27-.58-.44-1.2-.49-1.83v-.14c-.02-.74-.07-1.49-.18-2.23-.04-.26-.07-.51-.11-.77-.23-2.26-.49-4.53-.75-6.76-.18-1.55-.36-3.1-.53-4.65l-.48-4.43h5.16l3.99,19.11c-.03.51-.16,1.01-.37,1.48"/>
  </g>
</svg>