<?xml version="1.0" encoding="UTF-8"?>
<svg id="_레이어_1" data-name="레이어 1" xmlns="http://www.w3.org/2000/svg" viewBox="0 0 88.49 64.78">
  <defs>
    <style>
      .cls-1 {
        fill: #c7c7c7;
        stroke-width: 0px;
      }
    </style>
  </defs>
  <g id="_그룹_1391" data-name="그룹 1391">
    <path id="_패스_4599" data-name="패스 4599" class="cls-1" d="M26.27,64.78c-.72,0-1.4-.3-1.89-.82-.76-.81-.9-2.02-.34-2.98l4.65-8.01H7.66c-4.13.09-7.55-3.18-7.66-7.3V7.3C.11,3.18,3.53-.09,7.66,0h71.04c4.13-.09,7.55,3.17,7.66,7.3v38.36c-.11,4.13-3.53,7.39-7.66,7.3h-27.78l-23.49,11.55c-.36.18-.75.27-1.15.27M7.66,4.16c-1.83-.09-3.4,1.31-3.5,3.14v38.36c.1,1.83,1.67,3.24,3.5,3.15h24.65c1.15,0,2.08.93,2.08,2.08,0,.37-.1.73-.28,1.05l-3.8,6.53,19.21-9.44c.29-.14.6-.21.92-.21h28.26c1.83.09,3.4-1.32,3.5-3.15V7.3c-.1-1.83-1.67-3.24-3.5-3.15H7.66Z"/>
    <path id="_패스_4600" data-name="패스 4600" class="cls-1" d="M15.42,29.19c-1.9-1.9-1.9-4.97,0-6.87,1.9-1.9,4.97-1.9,6.87,0,1.9,1.9,1.9,4.97,0,6.87,0,0,0,0,0,0-1.9,1.9-4.97,1.9-6.87,0,0,0,0,0,0,0"/>
    <path id="_패스_4601" data-name="패스 4601" class="cls-1" d="M39.75,29.19c-1.9-1.9-1.9-4.97,0-6.87,1.9-1.9,4.97-1.9,6.87,0,1.9,1.9,1.9,4.97,0,6.87h0c-1.9,1.9-4.97,1.9-6.87,0,0,0,0,0,0,0"/>
    <path id="_패스_4602" data-name="패스 4602" class="cls-1" d="M64.08,29.19c-1.9-1.9-1.9-4.97,0-6.87,1.9-1.9,4.97-1.9,6.87,0s1.9,4.97,0,6.87c0,0,0,0,0,0-1.9,1.9-4.97,1.9-6.87,0,0,0,0,0,0,0"/>
  </g>
</svg>