<?xml version="1.0" encoding="UTF-8"?>
<svg id="_레이어_1" data-name="레이어 1" xmlns="http://www.w3.org/2000/svg" viewBox="0 0 67.1 67.1">
  <defs>
    <style>
      .cls-1 {
        fill: #cbcbcb;
        stroke-width: 0px;
      }
    </style>
  </defs>
  <path class="cls-1" d="M67.1,33.55C67.1,15.02,52.08,0,33.55,0S0,15.02,0,33.55c0,10.34,4.68,19.58,12.03,25.73,0,0,0,0,0,0,.49.41.99.81,1.5,1.19.07.05.15.1.22.16.4.29.8.57,1.2.84.22.15.45.29.68.44.26.17.53.33.8.49.26.16.53.31.8.46.24.13.48.26.73.39.29.15.58.3.87.44.23.11.46.22.7.33.31.14.61.29.93.42.19.08.38.15.57.23.65.26,1.3.5,1.97.72.22.07.43.15.65.22.33.1.66.19.99.28.25.07.5.14.75.2.32.08.65.15.98.23.27.06.53.11.8.17.32.06.64.12.96.17.29.05.59.09.89.13.3.04.59.08.89.11.39.04.78.07,1.16.1.21.01.41.04.62.05.62.03,1.25.05,1.88.05.61,0,1.22-.02,1.83-.05.33-.02.66-.05.99-.08.25-.02.5-.04.75-.06.42-.04.84-.1,1.27-.16.14-.02.29-.04.43-.06.47-.07.93-.16,1.39-.25.08-.02.16-.03.23-.05,5.75-1.2,11.09-3.9,15.46-7.83.1-.09.2-.17.3-.26.25-.23.5-.47.74-.71.24-.24.49-.48.72-.73.13-.14.27-.27.4-.41,1.06-1.14,2.05-2.35,2.95-3.63l.38-.5h0c3.62-5.37,5.73-11.81,5.74-18.76h0ZM33.55,34.18c-5.22,0-9.46-4.23-9.46-9.46,0-5.22,4.23-9.46,9.46-9.46h0c5.22,0,9.45,4.24,9.46,9.46,0,5.22-4.24,9.45-9.46,9.46ZM55.45,51.85c-1.11,1.34-2.35,2.58-3.69,3.69-3.02,2.51-6.41,4.3-9.95,5.37,0,0,0,0-.01,0-.43.13-.87.25-1.31.36-.04.01-.09.02-.13.03-.4.1-.81.19-1.21.27-.08.02-.15.03-.23.04-.37.07-.75.14-1.13.2-.12.02-.25.03-.37.05-.34.05-.67.09-1.01.13-.3.03-.61.05-.92.07-.33.02-.66.04-.99.05-.29,0-.58.02-.87.02-.27,0-.53,0-.8-.02-.2,0-.4,0-.59-.02-.34-.02-.69-.04-1.03-.07-.11,0-.21-.01-.32-.02-.4-.04-.81-.09-1.21-.14-.04,0-.08,0-.12-.02-6.76-.96-13.2-4.33-17.91-9.99,2.15-3.55,5.12-6.53,8.68-8.68,12.09-7.3,27.82-3.42,35.12,8.68ZM62.12,33.55c0,5.05-1.31,9.78-3.61,13.9-2.79-3.95-6.47-7.21-10.79-9.46-1.64-.86-3.33-1.55-5.04-2.08,3.24-2.65,5.31-6.67,5.32-11.18h0c0-7.98-6.47-14.44-14.44-14.44-7.98,0-14.44,6.47-14.44,14.44,0,4.51,2.07,8.53,5.31,11.18-6.25,1.96-11.87,5.92-15.83,11.54-2.29-4.11-3.61-8.85-3.61-13.9,0-15.78,12.79-28.57,28.57-28.57h0c15.77.02,28.55,12.8,28.57,28.57h0Z"/>
</svg>