<?xml version="1.0" encoding="UTF-8"?>
<svg viewBox="0 0 36.47 78.38" xmlns="http://www.w3.org/2000/svg">
  <defs>
    <clipPath id="clip-female" clipPathUnits="userSpaceOnUse">
      <path d="M26.39,8.16c0,4.51-3.65,8.16-8.16,8.16s-8.16-3.65-8.16-8.16S13.73,0,18.23,0s8.16,3.65,8.16,8.16Z"/>
      <path d="M36.38,44.51l-6.33-24.04s0-.02,0-.03c-.2-1.05-1.13-1.85-2.24-1.85H8.66c-1.11,0-2.04.8-2.24,1.85,0,0,0,.02,0,.03L.08,44.51c-.35,1.35.45,2.72,1.8,3.08,1.35.35,2.72-.45,3.08-1.8l5.12-19.45v10.88l-4.97,18.9h4.97v19.05c0,1.77,1.44,3.21,3.21,3.21s3.21-1.44,3.21-3.21v-19.02h3.48v19.02c0,1.77,1.44,3.21,3.21,3.21s3.21-1.44,3.21-3.21v-19.02h4.97l-4.97-18.9v-10.91l5.12,19.45c.35,1.35,1.73,2.15,3.08,1.8,1.35-.35,2.15-1.73,1.8-3.08Z"/>
    </clipPath>
  </defs>

  <g id="female-base">
    <path fill="#eaeaea" d="M26.39,8.16c0,4.51-3.65,8.16-8.16,8.16s-8.16-3.65-8.16-8.16S13.73,0,18.23,0s8.16,3.65,8.16,8.16Z"/>
    <path fill="#eaeaea" d="M36.38,44.51l-6.33-24.04s0-.02,0-.03c-.2-1.05-1.13-1.85-2.24-1.85H8.66c-1.11,0-2.04.8-2.24,1.85,0,0,0,.02,0,.03L.08,44.51c-.35,1.35.45,2.72,1.8,3.08,1.35.35,2.72-.45,3.08-1.8l5.12-19.45v10.88l-4.97,18.9h4.97v19.05c0,1.77,1.44,3.21,3.21,3.21s3.21-1.44,3.21-3.21v-19.02h3.48v19.02c0,1.77,1.44,3.21,3.21,3.21s3.21-1.44,3.21-3.21v-19.02h4.97l-4.97-18.9v-10.91l5.12,19.45c.35,1.35,1.73,2.15,3.08,1.8,1.35-.35,2.15-1.73,1.8-3.08Z"/>
  </g>

  <g clip-path="url(#clip-female)">
    <rect id="female-fill" x="0" y="78.38" width="36.47" height="0" fill="#ff66b2" opacity="0.5">
      <animate attributeName="y" from="78.38" to="0" begin="0.5s" dur="1s" fill="freeze"/>
      <animate attributeName="height" from="0" to="78.38" begin="0.5s" dur="1s" fill="freeze"/>
    </rect>
  </g>
</svg>
