<?xml version="1.0" encoding="UTF-8"?>
<svg viewBox="-3.815 0 36.47 78.38" xmlns="http://www.w3.org/2000/svg">
  <defs>
    <clipPath id="clip-male" clipPathUnits="userSpaceOnUse">
      <path d="M22.58,8.16c0,4.51-3.65,8.16-8.16,8.16s-8.16-3.65-8.16-8.16S9.91,0,14.42,0s8.16,3.65,8.16,8.16Z"/>
      <path d="M26.32,18.59H2.52c-1.39,0-2.52,1.13-2.52,2.52v24.75c0,1.38,1.06,2.58,2.44,2.62,1.43.04,2.6-1.1,2.6-2.52v-21.73c0-.34.27-.61.61-.61h0c.34,0,.61.27.61.61v50.82c0,1.71,1.29,3.2,3,3.31,1.87.12,3.42-1.36,3.42-3.2v-26.68h3.48v26.57c0,1.71,1.29,3.2,3,3.31,1.87.12,3.42-1.36,3.42-3.2V24.24c0-.34.27-.61.61-.61h0c.34,0,.61.27.61.61v21.62c0,1.38,1.06,2.58,2.44,2.62,1.43.04,2.6-1.1,2.6-2.52v-24.86c0-1.39-1.13-2.52-2.52-2.52Z"/>
    </clipPath>
  </defs>

  <g id="male-base">
    <path fill="#eaeaea" d="M22.58,8.16c0,4.51-3.65,8.16-8.16,8.16s-8.16-3.65-8.16-8.16S9.91,0,14.42,0s8.16,3.65,8.16,8.16Z"/>
    <path fill="#eaeaea" d="M26.32,18.59H2.52c-1.39,0-2.52,1.13-2.52,2.52v24.75c0,1.38,1.06,2.58,2.44,2.62,1.43.04,2.6-1.1,2.6-2.52v-21.73c0-.34.27-.61.61-.61h0c.34,0,.61.27.61.61v50.82c0,1.71,1.29,3.2,3,3.31,1.87.12,3.42-1.36,3.42-3.2v-26.68h3.48v26.57c0,1.71,1.29,3.2,3,3.31,1.87.12,3.42-1.36,3.42-3.2V24.24c0-.34.27-.61.61-.61h0c.34,0,.61.27.61.61v21.62c0,1.38,1.06,2.58,2.44,2.62,1.43.04,2.6-1.1,2.6-2.52v-24.86c0-1.39-1.13-2.52-2.52-2.52Z"/>
  </g>

  <g clip-path="url(#clip-male)">
    <rect id="male-fill" x="-3.815" y="78.38" width="36.47" height="0" fill="skyblue">
      <animate attributeName="y" from="78.38" to="0" begin="0.5s" dur="1s" fill="freeze"/>
      <animate attributeName="height" from="0" to="78.38" begin="0.5s" dur="1s" fill="freeze"/>
    </rect>
  </g>
</svg>
