<?xml version="1.0" encoding="UTF-8"?>
<svg id="_레이어_1" data-name="레이어 1" xmlns="http://www.w3.org/2000/svg" viewBox="0 0 307.93 419.57">
    <defs>
        <style>
            .cls-1, .cls-2, .cls-3, .cls-4, .cls-5 {
            fill-rule: evenodd;
            }

            .cls-1, .cls-6 {
            fill: #85f4ff;
            }

            .cls-7 {
            clip-path: url(#clippath);
            }

            .cls-2 {
            fill: #a5e2f9;
            }

            .cls-2, .cls-6, .cls-3, .cls-4, .cls-5, .cls-8 {
            stroke-width: 0px;
            }

            .cls-6 {
            clip-rule: evenodd;
            }

            .cls-3 {
            fill: #7a1c3e;
            opacity: .4;
            }

            .cls-4 {
            fill: #fff;
            }

            .cls-5, .cls-8 {
            fill: #55b2e5;
            }
        </style>
        <clipPath id="clippath">
            <path class="cls-6"
                  d="M94.4,66.76h-47.78c-14.86,0-28.25,7.73-35.67,20.6-7.43,12.87-7.43,28.33,0,41.19l23.89,41.38-23.89,41.38c-7.43,12.87-7.43,28.33,0,41.19,7.43,12.87,20.82,20.6,35.67,20.6h47.78l23.89,41.38c7.43,12.87,20.82,20.6,35.67,20.6s28.24-7.73,35.67-20.6l23.89-41.38h47.78c14.86,0,28.25-7.73,35.67-20.6,7.43-12.87,7.43-28.33,0-41.19l-23.89-41.38,23.89-41.38c7.43-12.87,7.43-28.33,0-41.19-7.43-12.87-20.82-20.6-35.67-20.6h-47.78l-23.89-41.38c-7.43-12.87-20.82-20.6-35.67-20.6s-28.24,7.73-35.67,20.6l-23.89,41.38Z"/>
        </clipPath>
    </defs>
    <g>
        <path class="cls-1"
              d="M94.4,66.76h-47.78c-14.86,0-28.25,7.73-35.67,20.6-7.43,12.87-7.43,28.33,0,41.19l23.89,41.38-23.89,41.38c-7.43,12.87-7.43,28.33,0,41.19,7.43,12.87,20.82,20.6,35.67,20.6h47.78l23.89,41.38c7.43,12.87,20.82,20.6,35.67,20.6s28.24-7.73,35.67-20.6l23.89-41.38h47.78c14.86,0,28.25-7.73,35.67-20.6,7.43-12.87,7.43-28.33,0-41.19l-23.89-41.38,23.89-41.38c7.43-12.87,7.43-28.33,0-41.19-7.43-12.87-20.82-20.6-35.67-20.6h-47.78l-23.89-41.38c-7.43-12.87-20.82-20.6-35.67-20.6s-28.24,7.73-35.67,20.6l-23.89,41.38Z"/>
        <g class="cls-7">
            <rect class="cls-8" x="3.51" y="4.79" width="300.9" height="330.29"/>
        </g>
    </g>
    <path class="cls-2"
          d="M60.6,414.79v-141.68h33.8l23.89,41.38c7.43,12.87,20.82,20.6,35.67,20.6s28.24-7.73,35.67-20.6l23.89-41.38h33.8v141.68l-93.36-52.91-93.36,52.91Z"/>
    <path class="cls-5"
          d="M94.5,273.28l23.79,41.21c7.43,12.87,20.82,20.6,35.67,20.6s28.24-7.73,35.67-20.6l23.79-41.21v122.3l-59.47-33.7-59.47,33.7v-122.3Z"/>
    <path class="cls-3"
          d="M60.6,280.16v-7.05h33.8l23.89,41.38c7.43,12.87,20.82,20.6,35.67,20.6s28.24-7.73,35.67-20.6l23.89-41.38h33.8v7.05h-29.73l-21.86,37.85c-8.69,15.05-24.41,24.12-41.78,24.12s-33.09-9.08-41.78-24.12l-21.86-37.85h-29.73Z"/>
    <path class="cls-4"
          d="M141.65,38.87l-27.57,47.76c-2.61,4.52-7.09,7.11-12.31,7.11h-55.15c-5.22,0-9.7,2.59-12.31,7.11-2.61,4.52-2.61,9.7,0,14.22l27.57,47.76c2.61,4.52,2.61,9.7,0,14.22l-27.57,47.76c-2.61,4.52-2.61,9.7,0,14.22,2.61,4.52,7.09,7.11,12.31,7.11h55.15c5.22,0,9.7,2.59,12.31,7.11l27.57,47.76c2.61,4.52,7.09,7.11,12.31,7.11s9.7-2.59,12.31-7.11l27.57-47.76c2.61-4.52,7.09-7.11,12.31-7.11h55.15c5.22,0,9.7-2.59,12.31-7.11,2.61-4.52,2.61-9.7,0-14.22l-27.57-47.76c-2.61-4.52-2.61-9.7,0-14.22l27.57-47.76c2.61-4.52,2.61-9.7,0-14.22-2.61-4.52-7.09-7.11-12.31-7.11h-55.15c-5.22,0-9.7-2.59-12.31-7.11l-27.57-47.76c-2.61-4.52-7.09-7.11-12.31-7.11s-9.7,2.59-12.31,7.11"/>
    <path class="cls-8"
          d="M100.48,135.2h22.43l8.08,42.78,11.82-42.78h22.35l11.85,42.73,8.08-42.73h22.31l-16.85,76.42h-23.16l-13.4-48.12-13.35,48.12h-23.16l-17-76.42Z"/>
</svg>