<?xml version="1.0" encoding="UTF-8"?>
<svg id="_레이어_1" data-name="레이어 1" xmlns="http://www.w3.org/2000/svg" viewBox="0 0 307.93 419.57">
    <defs>
        <style>
            .cls-1, .cls-2, .cls-3, .cls-4, .cls-5, .cls-6 {
            stroke-width: 0px;
            }

            .cls-1, .cls-3 {
            fill: #6ebc4d;
            }

            .cls-7 {
            clip-path: url(#clippath);
            }

            .cls-2 {
            fill: #965d08;
            opacity: .4;
            }

            .cls-2, .cls-3, .cls-5, .cls-6 {
            fill-rule: evenodd;
            }

            .cls-4 {
            clip-rule: evenodd;
            fill: none;
            }

            .cls-5 {
            fill: #fff;
            }

            .cls-6 {
            fill: #bae085;
            }
        </style>
        <clipPath id="clippath">
            <path class="cls-4"
                  d="M213.53,66.76h47.78c14.86,0,28.25,7.73,35.67,20.6,7.43,12.87,7.43,28.33,0,41.19l-23.89,41.38,23.89,41.38c7.43,12.87,7.43,28.33,0,41.19-7.43,12.87-20.82,20.6-35.67,20.6h-47.78l-23.89,41.38c-7.43,12.87-20.82,20.6-35.67,20.6s-28.25-7.73-35.67-20.6l-23.89-41.38h-47.78c-14.86,0-28.25-7.73-35.67-20.6-7.43-12.87-7.43-28.33,0-41.19l23.89-41.38-23.89-41.38c-7.43-12.87-7.43-28.33,0-41.19,7.43-12.87,20.82-20.6,35.67-20.6h47.78l23.89-41.38c7.43-12.87,20.82-20.6,35.67-20.6s28.25,7.73,35.67,20.6l23.89,41.38Z"/>
        </clipPath>
    </defs>
    <g class="cls-7">
        <rect class="cls-1" x="3.51" y="4.79" width="300.9" height="330.29"/>
    </g>
    <path class="cls-6"
          d="M247.33,414.79v-141.68h-33.8l-23.89,41.38c-7.43,12.87-20.82,20.6-35.67,20.6s-28.25-7.73-35.67-20.6l-23.89-41.38h-33.8v141.68l93.36-52.91,93.36,52.91Z"/>
    <path class="cls-3"
          d="M213.43,273.28l-23.79,41.21c-7.43,12.87-20.82,20.6-35.67,20.6s-28.25-7.73-35.67-20.6l-23.79-41.21v122.3l59.47-33.7,59.47,33.7v-122.3Z"/>
    <path class="cls-2"
          d="M247.33,280.16v-7.05h-33.8l-23.89,41.38c-7.43,12.87-20.82,20.6-35.67,20.6s-28.25-7.73-35.67-20.6l-23.89-41.38h-33.8v7.05h29.73l21.86,37.85c8.69,15.05,24.41,24.12,41.78,24.12s33.09-9.08,41.78-24.12l21.86-37.85h29.73Z"/>
    <path class="cls-5"
          d="M166.28,38.87l27.57,47.76c2.61,4.52,7.09,7.11,12.31,7.11h55.15c5.22,0,9.7,2.59,12.31,7.11,2.61,4.52,2.61,9.7,0,14.22l-27.57,47.76c-2.61,4.52-2.61,9.7,0,14.22l27.57,47.76c2.61,4.52,2.61,9.7,0,14.22-2.61,4.52-7.09,7.11-12.31,7.11h-55.15c-5.22,0-9.7,2.59-12.31,7.11l-27.57,47.76c-2.61,4.52-7.09,7.11-12.31,7.11s-9.7-2.59-12.31-7.11l-27.57-47.76c-2.61-4.52-7.09-7.11-12.31-7.11h-55.15c-5.22,0-9.7-2.59-12.31-7.11-2.61-4.52-2.61-9.7,0-14.22l27.57-47.76c2.61-4.52,2.61-9.7,0-14.22l-27.57-47.76c-2.61-4.52-2.61-9.7,0-14.22,2.61-4.52,7.09-7.11,12.31-7.11h55.15c5.22,0,9.7-2.59,12.31-7.11l27.57-47.76c2.61-4.52,7.09-7.11,12.31-7.11s9.7,2.59,12.31,7.11"/>
    <path class="cls-1" d="M126.28,135.2h58.39v16.42h-34.67v13.35h29.61v15.43h-29.61v31.23h-23.72v-76.42Z"/>
</svg>