<?xml version="1.0" encoding="UTF-8"?>
<svg id="_레이어_1" data-name="레이어 1" xmlns="http://www.w3.org/2000/svg" viewBox="0 0 51.39 66.75">
    <defs>
        <style>
            .cls-1 {
            clip-path: url(#clippath);
            }

            .cls-2 {
            fill: none;
            }

            .cls-2, .cls-3, .cls-4, .cls-5 {
            stroke-width: 0px;
            }

            .cls-3 {
            fill: #ffce45;
            }

            .cls-4 {
            fill: #fff;
            }

            .cls-5 {
            fill: #bfac4c;
            }
        </style>
        <clipPath id="clippath">
            <rect class="cls-2" x="1.52" y="1.98" width="48.34" height="62.79"/>
        </clipPath>
    </defs>
    <g id="_그룹_814" data-name="그룹 814">
        <g class="cls-1">
            <g id="_그룹_813" data-name="그룹 813">
                <path id="_패스_1691" data-name="패스 1691" class="cls-5"
                      d="M41.09,60.31H3.45c-1.06,0-1.92-.86-1.92-1.92,0,0,0,0,0,0V7.94c0-.98.74-1.81,1.72-1.91L40.89,1.99c1.06-.11,2,.65,2.12,1.71,0,.07.01.14.01.2v54.49c0,1.06-.86,1.92-1.92,1.92"/>
                <path id="_패스_1692" data-name="패스 1692" class="cls-3"
                      d="M47.53,64.77H4.35c-1.29,0-2.33-1.04-2.33-2.33V8.55c0-1.29,1.04-2.33,2.33-2.33h43.18c1.29,0,2.33,1.04,2.33,2.33v53.88c0,1.29-1.04,2.33-2.33,2.33"/>
                <path id="_패스_1693" data-name="패스 1693" class="cls-4"
                      d="M42.08,36.12h-.83c-.19-8.08-6.06-14.68-13.59-15.55-.12-.95-.98-1.63-1.93-1.51-.79.1-1.42.72-1.51,1.51-7.53.88-13.4,7.48-13.59,15.55h-.83c-.54,0-.98.44-.98.98s.44.98.98.98h32.29c.54,0,.98-.44.98-.98s-.44-.98-.98-.98"/>
                <path id="_패스_1694" data-name="패스 1694" class="cls-4"
                      d="M19,43.35c-.26-.25-.58-.44-.92-.56-.56-.18-1.16-.21-1.74-.09-.25.05-.49.13-.71.23-.22.1-.43.23-.61.39-.08.07-.15.14-.21.22-.2-.26-.46-.47-.75-.62-.85-.47-1.89-.39-2.65.22-.12.1-.24.21-.34.33-.03-.07-.06-.13-.09-.19-.11-.19-.28-.36-.47-.47-.26-.14-.55-.2-.85-.19-.3-.02-.59.06-.85.2-.21.13-.37.32-.48.54-.1.22-.16.45-.18.69-.02.23-.03.47-.03.71v4.56c0,.24.01.48.04.72.02.24.09.47.19.69.1.22.27.4.47.53.52.27,1.13.27,1.65,0,.2-.13.37-.32.47-.53.1-.22.17-.45.19-.69.03-.24.04-.48.04-.72v-1.62c0-.4.02-.77.05-1.11.02-.29.07-.58.16-.86.05-.19.15-.37.28-.51.09-.1.22-.15.35-.14.08,0,.17.01.24.06.06.04.1.1.13.16.04.1.07.2.07.3.01.14.02.28.02.42v3.29c0,.24.01.48.04.72.02.24.09.48.2.69.11.22.27.4.48.53.51.27,1.13.27,1.64,0,.21-.13.37-.31.48-.53.11-.22.17-.45.19-.69.03-.24.04-.48.04-.72v-2.28c.01-.28.04-.57.09-.85.03-.22.09-.43.17-.63.05-.14.14-.26.25-.36.15-.12.36-.13.53-.04.06.04.11.1.13.16.04.1.07.2.08.31.02.14.02.27.02.41v3.29c0,.24.01.48.04.72.02.24.09.48.2.69.11.22.27.4.48.53.25.14.54.21.83.2.29.01.57-.06.82-.2.21-.13.37-.31.48-.53.11-.22.17-.45.2-.69.03-.24.04-.48.04-.72v-3.5c.01-.51-.07-1.01-.25-1.48-.15-.38-.37-.72-.66-1"/>
                <path id="_패스_1695" data-name="패스 1695" class="cls-4"
                      d="M27.63,44.54c-.09-.26-.22-.5-.39-.72-.19-.25-.43-.47-.71-.63-.33-.19-.69-.33-1.07-.42-.49-.11-1-.17-1.5-.16-.17,0-.38,0-.61.03-.26.02-.52.06-.78.13-.28.08-.56.19-.82.33-.29.16-.55.38-.75.63-.24.3-.42.63-.53,1-.14.46-.21.94-.2,1.43v1.95c-.01.54.09,1.07.31,1.56.19.41.48.77.84,1.05.36.27.76.47,1.2.58.45.12.92.18,1.38.18.39,0,.78-.03,1.17-.09.41-.06.8-.17,1.18-.33.36-.14.68-.36.95-.64.27-.29.42-.68.41-1.08,0-.19-.04-.38-.12-.55-.08-.14-.19-.26-.33-.35-.13-.08-.28-.14-.44-.16-.4-.07-.81-.05-1.21.06-.17.05-.33.13-.47.24-.11.09-.2.19-.27.31-.05.08-.1.15-.16.21-.05.06-.12.1-.19.13-.13.05-.27.07-.41.06-.12,0-.25-.02-.36-.08-.09-.05-.17-.13-.23-.22-.06-.1-.11-.2-.13-.32-.03-.12-.04-.24-.04-.36v-.54h3.05c.27.01.55-.04.8-.14.18-.08.34-.2.46-.36.1-.14.16-.3.17-.47.01-.13.02-.24.02-.34v-.52c0-.21-.01-.43-.04-.67-.02-.25-.08-.5-.16-.74M24.88,46.01h-1.55v-.32c0-.1,0-.19.02-.29.01-.09.04-.17.09-.24.05-.08.12-.14.2-.18.13-.06.27-.09.41-.08.18-.01.35.02.51.08.09.04.16.11.21.2.06.13.09.27.09.41,0,.13.01.27.02.42"/>
                <path id="_패스_1696" data-name="패스 1696" class="cls-4"
                      d="M34.8,43.35c-.26-.25-.58-.44-.92-.56-.58-.21-1.23-.22-1.81-.01-.22.09-.43.22-.6.38-.1.09-.19.19-.28.3-.03-.06-.06-.12-.09-.17-.12-.19-.28-.35-.48-.46-.26-.14-.55-.2-.85-.19-.3-.02-.59.06-.85.2-.2.13-.37.31-.48.53-.1.22-.16.45-.17.69-.02.23-.03.47-.03.71v4.54c0,.24.01.49.04.73.02.24.09.48.2.7.11.22.27.4.48.53.51.27,1.13.27,1.64,0,.21-.13.37-.31.48-.53.11-.22.18-.45.21-.7.03-.24.04-.49.04-.73v-1.59c0-.4.01-.77.04-1.12.02-.29.07-.58.15-.86.05-.19.14-.37.27-.51.09-.1.22-.15.36-.14.08,0,.17.01.24.06.06.04.1.1.13.17.04.1.07.21.08.32.01.14.02.28.02.43v3.24c0,.24.01.49.04.73.02.24.09.48.2.7.11.22.27.4.48.53.25.15.53.22.82.2.29.01.58-.06.83-.2.2-.13.37-.31.48-.53.11-.22.18-.45.21-.7.03-.24.04-.49.04-.73v-3.46c.01-.51-.07-1.02-.25-1.5-.15-.38-.37-.72-.66-1.01"/>
                <path id="_패스_1697" data-name="패스 1697" class="cls-4"
                      d="M43.71,44.07c-.02-.24-.09-.48-.2-.7-.11-.22-.27-.4-.47-.53-.25-.15-.53-.22-.82-.21-.29-.01-.58.06-.83.2-.2.13-.37.31-.48.53-.11.22-.18.45-.21.7-.03.24-.04.49-.04.73v1.58c0,.4-.01.77-.04,1.12-.02.29-.07.58-.15.86-.05.19-.14.37-.27.51-.09.1-.22.15-.35.14-.08,0-.17-.01-.24-.06-.06-.04-.1-.1-.13-.17-.04-.1-.07-.2-.08-.31-.01-.14-.02-.28-.02-.44v-3.25c0-.24-.01-.49-.04-.73-.02-.24-.09-.48-.2-.7-.11-.22-.27-.4-.48-.53-.25-.15-.53-.22-.82-.21-.29-.01-.58.06-.83.2-.21.13-.37.31-.48.53-.11.22-.18.45-.21.7-.03.24-.04.49-.04.73v3.46c-.01.51.07,1.02.25,1.5.15.38.37.72.66,1.01.26.25.58.44.92.56.58.21,1.23.22,1.81.01.22-.09.42-.22.6-.38.1-.09.19-.19.27-.3.03.06.06.12.09.17.12.19.28.35.48.46.26.14.55.2.85.19.3.01.59-.06.85-.2.2-.13.37-.32.47-.53.1-.22.16-.45.17-.69.02-.23.03-.47.03-.71v-4.54c0-.24-.01-.49-.04-.73"/>
            </g>
        </g>
    </g>
</svg>