<?xml version="1.0" encoding="UTF-8"?>
<svg id="_레이어_1" data-name="레이어 1" xmlns="http://www.w3.org/2000/svg" viewBox="0 0 74.54 45.61">
    <defs>
        <style>
            .cls-1 {
            clip-path: url(#clippath);
            }

            .cls-2 {
            fill: none;
            }

            .cls-2, .cls-3, .cls-4 {
            stroke-width: 0px;
            }

            .cls-3 {
            fill: #ff9c31;
            }

            .cls-4 {
            fill: #fff;
            }
        </style>
        <clipPath id="clippath">
            <rect class="cls-2" x="1.54" y=".94" width="71.46" height="43.73"/>
        </clipPath>
    </defs>
    <g id="_그룹_816" data-name="그룹 816">
        <g class="cls-1">
            <g id="_그룹_815" data-name="그룹 815">
                <path id="_패스_1698" data-name="패스 1698" class="cls-3"
                      d="M65.35,22.81c0-3.78,2.62-7.07,6.3-7.92.79-.2,1.35-.91,1.34-1.73V2.73c0-.99-.8-1.79-1.79-1.79,0,0,0,0,0,0H3.33c-.99,0-1.79.8-1.79,1.79h0v10.43c0,.82.55,1.53,1.34,1.73,3.69.85,6.3,4.13,6.3,7.92,0,3.79-2.61,7.07-6.3,7.92-.79.2-1.35.91-1.34,1.73v10.43c0,.99.8,1.79,1.79,1.79h67.88c.99,0,1.79-.8,1.79-1.79h0v-10.43c0-.82-.55-1.53-1.34-1.73-3.69-.85-6.3-4.13-6.3-7.92"/>
                <path id="_패스_1699" data-name="패스 1699" class="cls-4"
                      d="M28.45,33.48c-1.03,0-1.86-.83-1.86-1.86,0-.49.2-.97.55-1.32l17.62-17.62c.73-.73,1.91-.73,2.64,0,.73.73.73,1.91,0,2.64l-17.63,17.63c-.35.35-.82.55-1.32.55"/>
                <path id="_패스_1700" data-name="패스 1700" class="cls-4"
                      d="M45.08,36.08c-3.01,0-5.46-2.44-5.46-5.45,0-3.01,2.44-5.46,5.45-5.46,3.01,0,5.46,2.44,5.46,5.45h0c0,3.01-2.44,5.45-5.45,5.46M45.08,28.89c-.95,0-1.73.77-1.73,1.73s.77,1.73,1.73,1.73,1.73-.77,1.73-1.73h0c0-.95-.77-1.73-1.73-1.73"/>
                <path id="_패스_1701" data-name="패스 1701" class="cls-4"
                      d="M29.45,20.44c-3.01,0-5.46-2.44-5.46-5.45,0-3.01,2.44-5.46,5.45-5.46,3.01,0,5.46,2.44,5.46,5.45h0c0,3.01-2.44,5.45-5.45,5.46M29.45,13.26c-.95,0-1.73.77-1.73,1.73,0,.95.77,1.73,1.73,1.73.95,0,1.73-.77,1.73-1.73h0c0-.95-.77-1.73-1.73-1.73"/>
            </g>
        </g>
    </g>
</svg>