<?xml version="1.0" encoding="UTF-8"?>
<svg id="_레이어_1" data-name="레이어 1" xmlns="http://www.w3.org/2000/svg" viewBox="0 0 46.34 46.37">
    <defs>
        <style>
            .cls-1 {
            fill: #afd9ef;
            }

            .cls-1, .cls-2, .cls-3 {
            stroke-width: 0px;
            }

            .cls-2 {
            fill: #e87070;
            }

            .cls-3 {
            fill: #969696;
            }
        </style>
    </defs>
    <path class="cls-2"
          d="M35.35,44.86h-1.44c-.77-.22-1.57-.36-2.3-.66-9.19-3.77-18.37-7.56-27.56-11.35-1.65-.68-2.53-1.99-2.53-3.78,0-1.92,0-3.83,0-5.75.02-3.15.75-6.13,2.09-8.98,1.42-3.01,3.37-5.63,5.86-7.83,1.78-1.57,3.75-2.85,5.98-3.66,3.69-1.35,7.51-1.69,11.36-.94,8.39,1.63,14.1,6.48,17.02,14.54.36.99.57,2.04.86,3.14-.29-.02-.45-.03-.62-.05-2.36-.3-4.72-.6-7.08-.89-3.49-.44-6.99-.85-10.48-1.31-2.51-.33-4.52,1.38-4.52,3.9,0,1.71.03,3.41,0,5.12-.04,1.9.79,3.2,2.49,4.04,5.65,2.8,11.28,5.63,16.92,8.45.14.07.27.14.41.22-.63,2.21-1.82,3.97-3.9,4.97-.8.38-1.7.55-2.55.82ZM11.75,19.48c-2.8,0-5.08,2.29-5.07,5.08,0,2.78,2.28,5.05,5.06,5.06,2.79.01,5.09-2.28,5.09-5.07,0-2.8-2.28-5.08-5.08-5.08Z"/>
    <path class="cls-1"
          d="M44.82,35.97c-.57,1.02-1.12,1.19-2.18.66-4.23-2.11-8.46-4.23-12.69-6.34-.2-.1-.37-.18-.37-.48.02-3.1,0-6.2.01-9.3,0-.05,0-.11.02-.23,5.08.64,10.14,1.28,15.21,1.91v13.79Z"/>
    <path class="cls-1"
          d="M27.05,19.96v8.92c-.78-.45-1.52-.82-2.19-1.3-.21-.15-.31-.57-.32-.87-.03-1.86-.02-3.72-.01-5.58,0-.81.57-1.35,1.38-1.31.38.02.75.09,1.13.14Z"/>
    <path class="cls-3"
          d="M14.29,24.53c0,1.37-1.13,2.53-2.51,2.55-1.38.02-2.56-1.15-2.56-2.54,0-1.38,1.15-2.52,2.53-2.52,1.38,0,2.53,1.14,2.54,2.52Z"/>
</svg>