<?xml version="1.0" encoding="UTF-8"?>
<svg id="_레이어_1" data-name="레이어 1" xmlns="http://www.w3.org/2000/svg" viewBox="0 0 158.64 158.64">
    <defs>
        <style>
            .cls-1 {
            fill: #ededed;
            }

            .cls-1, .cls-2 {
            stroke-width: 0px;
            }

            .cls-2 {
            fill: #969696;
            }
        </style>
    </defs>
    <circle class="cls-1" cx="79.32" cy="79.32" r="75.65"/>
    <g>
        <path class="cls-2"
              d="M118.37,122.59h-7.63v-15.59c0-9.22-7.96-16.72-17.73-16.72h-27.38c-9.78,0-17.73,7.5-17.73,16.72v15.59h-7.63v-15.59c0-13.43,11.38-24.35,25.36-24.35h27.38c13.99,0,25.36,10.92,25.36,24.35v15.59Z"/>
        <path class="cls-2"
              d="M79.32,76.13c-13.04,0-23.66-10.61-23.66-23.66s10.61-23.66,23.66-23.66,23.66,10.61,23.66,23.66-10.61,23.66-23.66,23.66ZM79.32,36.45c-8.84,0-16.03,7.19-16.03,16.03s7.19,16.03,16.03,16.03,16.03-7.19,16.03-16.03-7.19-16.03-16.03-16.03Z"/>
    </g>
</svg>