<?xml version="1.0" encoding="UTF-8"?>
<svg id="_레이어_1" data-name="레이어 1" xmlns="http://www.w3.org/2000/svg" viewBox="0 0 58 62">
    <defs>
        <style>
            .cls-1 {
            fill: #0080de;
            }
        </style>
    </defs>
    <g id="_그룹_2089" data-name="그룹 2089">
        <g id="_패스_5437" data-name="패스 5437">
            <path class="cls-1" d="M12.38,60.42c-.35,0-.67-.15-.91-.4L1.39,49.94c-.23-.25-.37-.57-.4-.91,0-.35.15-.67.4-.91l9.68-9.68c.26-.27.63-.42,1.01-.4l23.39,2.62c1.06.09,2.06.56,2.82,1.31.46.41.81.93,1.01,1.51l9.48-9.48c1.92-1.87,4.99-1.83,6.86.09,1.83,1.88,1.83,4.88,0,6.76l-16.73,16.83c-.25.23-.57.37-.91.4l-21.98-.81-2.72,2.72c-.26.21-.57.35-.91.4M4.01,49.03l8.27,8.27,2.32-2.32c.25-.23.57-.37.91-.4l21.98.8,16.43-16.43c.91-.92.91-2.4,0-3.33-.46-.45-1.07-.71-1.71-.71-.64,0-1.26.25-1.71.71l-11.29,11.59c-.77,1.68-2.49,2.72-4.33,2.62l-12.91-.6c-.7,0-1.26-.58-1.25-1.28,0-.7.58-1.26,1.28-1.25.02,0,.05,0,.07,0l12.9.6c.75.03,1.45-.36,1.81-1.01,0-.19.08-.36.2-.5.09-.26.12-.53.1-.81-.08-.45-.29-.88-.6-1.21-.37-.32-.83-.53-1.31-.6l-22.89-2.52-8.26,8.36Z"/>
            <path class="cls-1" d="M12.38,60.55c-.38,0-.74-.16-1-.44L1.3,50.02c-.25-.27-.41-.62-.44-.99,0-.39.16-.75.44-1.01l9.68-9.68c.28-.3.69-.45,1.1-.44l23.4,2.62c1.09.1,2.12.57,2.9,1.35.42.38.75.85.97,1.38l9.34-9.34c.94-.91,2.17-1.41,3.47-1.41.02,0,.04,0,.07,0,1.33.02,2.57.55,3.5,1.5,1.89,1.95,1.89,4.99,0,6.94l-16.73,16.83c-.27.25-.62.41-.99.44l-21.94-.8-2.68,2.69c-.29.24-.62.39-.98.44l-.02-.12v.13ZM12,38.17c-.31,0-.62.13-.84.36L1.47,48.21c-.23.21-.36.51-.36.82.02.3.15.6.37.82l10.08,10.08c.21.23.5.36.8.36h0c.31-.04.6-.17.84-.37l2.75-2.76,22.03.81c.29-.02.59-.15.82-.37l16.73-16.83c1.8-1.85,1.8-4.74,0-6.59-.88-.9-2.06-1.41-3.32-1.43-1.27-.02-2.45.46-3.36,1.34l-9.62,9.62-.07-.19c-.2-.56-.53-1.06-.97-1.46-.74-.73-1.72-1.19-2.75-1.28l-23.39-2.62s-.04,0-.06,0ZM12.28,57.47l-8.44-8.44,8.39-8.49h.06s22.89,2.53,22.89,2.53c.51.08.99.3,1.38.63.35.36.57.8.65,1.28.03.3-.01.59-.11.87l-.03.04c-.1.12-.16.26-.17.42v.03s-.02.03-.02.03c-.39.69-1.12,1.1-1.93,1.07l-12.91-.6s-.05,0-.08,0c-.62,0-1.13.5-1.14,1.12,0,.63.5,1.14,1.12,1.15l12.91.6c1.79.1,3.46-.91,4.21-2.55l.02-.04,11.29-11.59c.47-.47,1.11-.74,1.77-.74h.03c.68,0,1.32.26,1.8.74.95.97.95,2.54,0,3.5l-16.47,16.47-22.04-.8c-.3.02-.59.15-.82.37l-2.4,2.4ZM4.19,49.03l8.09,8.09,2.23-2.23c.27-.25.62-.41.99-.44l21.94.8,16.39-16.39c.85-.87.85-2.28,0-3.15-.43-.43-1.01-.67-1.62-.67-.6,0-1.2.24-1.62.67l-11.28,11.58c-.8,1.72-2.55,2.76-4.44,2.68l-12.91-.6c-.76,0-1.38-.64-1.37-1.4,0-.76.63-1.37,1.39-1.37h.02s.05,0,.08,0l12.9.6c.68.02,1.33-.32,1.69-.92.01-.19.09-.38.21-.53.08-.24.11-.48.09-.73-.07-.42-.27-.82-.57-1.13-.35-.29-.78-.49-1.24-.56l-22.82-2.51-8.13,8.23Z"/>
        </g>
        <g id="_패스_5438" data-name="패스 5438">
            <path class="cls-1" d="M31.32,30.51c-6.29.06-11.44-5-11.5-11.29-.06-6.29,5-11.44,11.29-11.5,6.29-.06,11.44,5,11.5,11.29,0,.07,0,.13,0,.2.05,6.19-4.94,11.25-11.13,11.29-.05,0-.11,0-.16,0M31.32,10.35c-4.9,0-8.87,3.97-8.87,8.87s3.97,8.87,8.87,8.87,8.87-3.97,8.87-8.87h0c0-4.9-3.97-8.87-8.87-8.87"/>
            <path class="cls-1" d="M31.22,30.64c-3.04,0-5.9-1.17-8.07-3.3-2.19-2.16-3.42-5.04-3.45-8.11-.06-6.35,5.06-11.56,11.42-11.62.03,0,.07,0,.1,0,6.3,0,11.46,5.1,11.52,11.42v.2c.02,3.03-1.14,5.88-3.26,8.04-2.13,2.16-4.96,3.36-7.99,3.38h-.16s-.07,0-.11,0ZM31.22,7.85s-.07,0-.1,0c-6.21.06-11.22,5.16-11.17,11.37.06,6.18,5.1,11.17,11.27,11.17.03,0,.07,0,.1,0h.16c6.11-.04,11.05-5.05,11-11.17v-.2c-.06-6.18-5.1-11.17-11.27-11.17ZM31.32,28.22h0c-2.4,0-4.66-.94-6.36-2.64s-2.63-3.96-2.63-6.36.94-4.66,2.64-6.36c1.7-1.7,3.96-2.63,6.36-2.63h0c4.95,0,8.99,4.04,9,9,0,2.4-.94,4.66-2.64,6.36-1.7,1.7-3.96,2.63-6.36,2.63ZM31.32,10.47c-2.34,0-4.53.91-6.19,2.56-1.65,1.65-2.56,3.85-2.56,6.19s.91,4.53,2.56,6.19c1.65,1.65,3.85,2.56,6.19,2.56h0c2.34,0,4.53-.91,6.19-2.56,1.65-1.65,2.56-3.85,2.56-6.19,0-4.82-3.93-8.74-8.75-8.75h0Z"/>
        </g>
        <g id="_패스_5439" data-name="패스 5439">
            <path class="cls-1" d="M31.27,36.86c-9.74,0-17.64-7.9-17.64-17.64,0-9.74,7.9-17.64,17.64-17.64,9.74,0,17.64,7.9,17.64,17.64-.05,9.73-7.92,17.6-17.64,17.64M31.27,4.1c-8.35,0-15.12,6.77-15.12,15.12s6.77,15.12,15.12,15.12,15.12-6.77,15.12-15.12h0c.01-8.34-6.74-15.11-15.08-15.12-.02,0-.03,0-.05,0"/>
            <path class="cls-1" d="M31.28,36.99h0c-4.75,0-9.21-1.85-12.56-5.21-3.36-3.36-5.2-7.82-5.2-12.56s1.85-9.21,5.2-12.56S26.53,1.45,31.28,1.45h0c9.8,0,17.77,7.97,17.77,17.77-.05,9.75-8.02,17.72-17.77,17.77ZM31.28,1.7c-4.68,0-9.08,1.82-12.39,5.13-3.31,3.31-5.13,7.71-5.13,12.39s1.82,9.08,5.13,12.39c3.31,3.31,7.71,5.13,12.39,5.13,9.61-.05,17.47-7.9,17.52-17.52,0-9.66-7.86-17.52-17.52-17.52h0ZM31.27,34.47c-8.41,0-15.25-6.84-15.25-15.25S22.87,3.97,31.27,3.97h.05c4.07,0,7.89,1.6,10.76,4.48,2.87,2.88,4.45,6.71,4.44,10.77,0,8.41-6.84,15.25-15.25,15.25ZM31.27,4.22c-8.27,0-15,6.73-15,15s6.73,15,15,15,15-6.73,15-15c0-4-1.55-7.76-4.37-10.6-2.82-2.83-6.58-4.4-10.58-4.4h-.05Z"/>
        </g>
        <g id="_패스_5440" data-name="패스 5440">
            <path class="cls-1" d="M32.76,23.11l-1.47-5.47-1.5,5.47c-.12.42-.21.71-.28.89-.08.19-.2.36-.36.49-.19.15-.43.23-.68.22-.19,0-.39-.04-.56-.13-.15-.09-.27-.21-.36-.36-.1-.17-.17-.36-.22-.55-.06-.21-.11-.41-.16-.59l-1.52-6.15c-.08-.27-.12-.54-.14-.81,0-.23.08-.44.25-.6.16-.16.39-.25.62-.24.27-.03.53.09.68.32.14.3.25.61.31.94l1.19,5.33,1.34-4.99c.07-.3.16-.59.27-.87.08-.2.21-.38.39-.52.21-.15.47-.23.73-.22.26-.02.52.06.73.23.16.13.28.3.36.49.07.18.16.47.27.88l1.35,4.99,1.19-5.33c.04-.22.1-.44.17-.65.05-.16.15-.31.27-.42.15-.13.35-.2.55-.19.23,0,.45.08.61.24.17.16.26.37.25.6-.02.28-.06.55-.14.81l-1.52,6.14c-.1.42-.19.72-.26.91-.07.2-.19.37-.35.51-.2.16-.44.23-.69.22-.24.01-.49-.06-.68-.21-.16-.12-.28-.29-.35-.48-.07-.18-.16-.48-.28-.91"/>
            <path class="cls-1" d="M28.52,24.83s-.07,0-.1,0c-.19,0-.39-.05-.57-.14-.17-.1-.31-.24-.41-.41-.1-.18-.18-.38-.24-.58-.06-.21-.11-.41-.16-.6l-1.52-6.15c-.08-.27-.13-.55-.14-.84,0-.26.1-.52.29-.7.19-.18.44-.28.71-.28.29-.04.61.11.78.38.16.32.26.65.32.98l1.08,4.83,1.21-4.5c.07-.3.16-.6.27-.88.09-.22.24-.42.42-.57.24-.17.53-.26.81-.25.28-.02.57.07.8.25.18.15.31.34.4.55.07.18.16.48.27.9l1.22,4.5,1.08-4.84c.04-.22.1-.44.17-.66.06-.18.16-.35.3-.48.18-.16.42-.23.65-.22.26-.01.5.09.69.27.19.18.3.43.29.69-.02.29-.06.57-.14.85l-1.52,6.14c-.09.37-.18.7-.26.92-.08.22-.21.41-.38.56-.23.18-.5.27-.78.25-.27,0-.53-.07-.75-.24-.18-.14-.31-.32-.4-.53-.07-.19-.17-.5-.28-.92h.03s-.03,0-.03,0l-1.35-5.03-1.38,5.03c-.12.41-.21.72-.28.9-.08.21-.22.4-.4.54-.2.16-.45.24-.71.24ZM28.47,24.58c.22,0,.44-.06.61-.19.14-.11.25-.26.32-.43.07-.18.16-.47.27-.88l1.62-5.92,1.59,5.91c.11.41.21.72.28.9.06.16.17.31.31.42.17.13.38.2.6.19.23.02.45-.05.62-.19.14-.12.25-.28.31-.45.08-.22.17-.54.25-.9l1.52-6.15c.07-.26.12-.53.13-.79,0-.19-.07-.37-.21-.5-.14-.14-.34-.21-.52-.21-.18,0-.34.04-.47.16-.1.1-.19.23-.23.37-.06.21-.12.43-.16.64l-1.31,5.83-1.48-5.48c-.11-.41-.2-.7-.26-.87-.07-.17-.18-.32-.32-.44-.18-.14-.41-.21-.64-.2-.25,0-.48.06-.66.19-.15.12-.27.28-.34.46-.1.27-.19.56-.26.85l-1.47,5.48-1.31-5.83c-.06-.32-.16-.62-.3-.91-.11-.18-.33-.28-.55-.25-.2,0-.41.07-.55.21-.14.13-.21.32-.21.51.01.26.06.53.13.78l1.52,6.15c.05.18.1.38.16.59.05.18.12.36.21.53.07.13.18.24.31.31.15.08.33.12.49.11Z"/>
        </g>
        <g id="_패스_5441" data-name="패스 5441">
            <path class="cls-1" d="M25.46,18.27h11.62c.28-.02.55.06.77.23.18.15.27.38.26.61,0,.24-.09.46-.26.62-.22.17-.5.26-.77.24h-11.62c-.28.02-.56-.06-.78-.24-.17-.16-.27-.39-.26-.62,0-.23.09-.46.27-.61.22-.17.49-.25.77-.23"/>
            <path class="cls-1" d="M25.37,20.1c-.27,0-.54-.09-.76-.27-.21-.19-.31-.45-.3-.72,0-.26.1-.52.31-.7.25-.19.55-.28.85-.26h11.62c.29-.02.6.07.85.25.21.19.32.45.31.72.01.26-.1.53-.3.71-.25.2-.56.3-.87.27h-11.61s-.06,0-.09,0ZM25.39,18.39c-.22,0-.44.07-.62.21-.14.12-.23.31-.22.5,0,.21.07.4.22.53.19.15.43.23.68.21h11.63c.25.02.5-.06.7-.21.14-.13.22-.32.21-.52,0-.21-.07-.39-.22-.52-.19-.14-.43-.21-.68-.2h-11.63s0,0,0,0c-.02,0-.04,0-.07,0Z"/>
        </g>
    </g>
</svg>