<?xml version="1.0" encoding="UTF-8"?>
<svg id="_레이어_1" data-name="레이어 1" xmlns="http://www.w3.org/2000/svg" viewBox="0 0 24 24">
  <defs>
    <style>
      .cls-1 {
        fill: #c7c7c7;
        stroke-width: 0px;
      }
    </style>
  </defs>
  <g id="_그룹_1384" data-name="그룹 1384">
    <path id="_패스_4598" data-name="패스 4598" class="cls-1" d="M11.98,2.06h.32c5.08.2,8.33,5.18,6.31,9.53l-5.54,9.66c-.42.68-1.31.89-1.98.47-.2-.12-.37-.29-.49-.5l-5.3-9.79c-1.9-4.4,1.46-9.29,6.55-9.36h.12M11.99,13.91c2.43,0,4.39-1.97,4.39-4.4,0-2.18-1.6-4.03-3.76-4.34-.21-.03-.42-.04-.63-.04-2.43,0-4.4,1.96-4.4,4.38,0,2.19,1.61,4.05,3.78,4.36.21.03.42.04.63.04M11.98.1h-.16c-3.08.02-5.95,1.57-7.65,4.15-1.56,2.36-1.82,5.36-.68,7.96l.03.08.04.08,5.3,9.79c.92,1.64,2.99,2.23,4.64,1.31.53-.29.96-.72,1.27-1.24l5.54-9.65.04-.07.04-.08c1.21-2.56,1.03-5.57-.48-7.97C18.3,1.83,15.47.2,12.39.11c-.09,0-.18,0-.27,0h-.13ZM11.99,11.94c-.12,0-.24,0-.35-.02-1.33-.2-2.24-1.43-2.04-2.76.18-1.19,1.2-2.07,2.4-2.07.12,0,.24,0,.36.03,1.33.2,2.24,1.43,2.04,2.76-.18,1.19-1.2,2.07-2.4,2.07"/>
  </g>
</svg>