<?xml version="1.0" encoding="UTF-8"?>
<svg id="_레이어_1" data-name="레이어 1" xmlns="http://www.w3.org/2000/svg" viewBox="0 0 24 24">
  <defs>
    <style>
      .cls-1 {
        fill: #0080de;
      }

      .cls-1, .cls-2 {
        stroke-width: 0px;
      }

      .cls-2 {
        fill: #23224a;
      }
    </style>
  </defs>
  <g id="CUSTOM-Group">
    <path class="cls-2" d="M12,16.14c-1.28,0-2.33,1.04-2.33,2.33v3.1c0,1.28,1.04,2.33,2.33,2.33s2.33-1.04,2.33-2.33v-3.1c0-1.28-1.04-2.33-2.33-2.33Z"/>
    <path class="cls-1" d="M19.76,3.2h-3.96c-.36-1.77-1.93-3.1-3.8-3.1s-3.44,1.34-3.8,3.1h-3.96c-.43,0-.78.35-.78.78s.35.78.78.78h3.96c.17.82.6,1.55,1.2,2.09-2.52,1.06-4.3,3.55-4.3,6.44v5.6c0,1.05.85,1.9,1.9,1.9h1.12v-2.33c0-2.14,1.74-3.88,3.88-3.88s3.88,1.74,3.88,3.88v2.33h1.21c1.05,0,1.9-.85,1.9-1.9v-5.6c0-2.91-1.81-5.42-4.36-6.46.59-.54,1.01-1.26,1.18-2.07h3.96c.43,0,.78-.35.78-.78s-.35-.78-.78-.78ZM12,6.31c-1.28,0-2.33-1.04-2.33-2.33s1.04-2.33,2.33-2.33,2.33,1.04,2.33,2.33-1.04,2.33-2.33,2.33Z"/>
  </g>
</svg>