<?xml version="1.0" encoding="UTF-8"?>
<svg id="_레이어_1" data-name="레이어 1" xmlns="http://www.w3.org/2000/svg" viewBox="0 0 24 24">
  <defs>
    <style>
      .cls-1 {
        clip-path: url(#clippath);
      }

      .cls-2 {
        fill: none;
      }

      .cls-2, .cls-3 {
        stroke-width: 0px;
      }

      .cls-3 {
        fill: #0080de;
      }
    </style>
    <clipPath id="clippath">
      <rect class="cls-2" x=".1" y=".09" width="23.8" height="23.82"/>
    </clipPath>
  </defs>
  <g class="cls-1">
    <g id="_그룹_1392" data-name="그룹 1392">
      <path id="_패스_4603" data-name="패스 4603" class="cls-3" d="M18.7,23.91h-.79c-.43-.1-.85-.22-1.26-.36-5.05-2.07-10.1-4.15-15.15-6.24-.87-.31-1.43-1.15-1.4-2.07v-3.16c.02-1.71.41-3.4,1.15-4.94.77-1.64,1.86-3.1,3.22-4.3.96-.87,2.07-1.56,3.29-2.01C9.75.08,11.91-.1,14,.3c4.37.69,7.99,3.78,9.35,7.99.2.55.31,1.12.48,1.72-.16-.01-.25-.02-.34-.03-1.3-.16-2.6-.33-3.89-.49-1.92-.24-3.84-.47-5.76-.72-1.15-.21-2.25.56-2.45,1.71-.03.15-.04.29-.03.44,0,.94.02,1.88,0,2.81-.07.96.48,1.85,1.37,2.22,3.1,1.54,6.2,3.1,9.3,4.65.07.04.15.08.23.12-.27,1.19-1.06,2.19-2.15,2.73-.46.18-.92.33-1.4.45M5.72,9.96c-1.54,0-2.79,1.25-2.79,2.79,0,1.54,1.25,2.79,2.79,2.79,1.54,0,2.79-1.25,2.79-2.79,0-1.54-1.25-2.79-2.79-2.79"/>
      <path id="_패스_4604" data-name="패스 4604" class="cls-3" d="M23.9,19.03c-.31.56-.62.65-1.2.36l-6.97-3.49c-.11-.06-.2-.1-.2-.26,0-1.7,0-3.41,0-5.11,0-.03,0-.06,0-.13l8.36,1.05v7.58Z"/>
      <path id="_패스_4605" data-name="패스 4605" class="cls-3" d="M14.13,10.23v4.9c-.43-.25-.84-.45-1.2-.71-.12-.13-.18-.3-.17-.48-.01-1.02-.01-2.04,0-3.07-.02-.38.27-.7.65-.72.04,0,.07,0,.11,0,.21,0,.41.05.62.07"/>
      <path id="_패스_4606" data-name="패스 4606" class="cls-3" d="M7.12,12.74c0,.77-.61,1.4-1.38,1.4-.77,0-1.4-.61-1.4-1.38,0-.77.61-1.4,1.38-1.4,0,0,0,0,0,0,.76,0,1.38.62,1.39,1.38"/>
    </g>
  </g>
</svg>