<?xml version="1.0" encoding="UTF-8"?>
<svg id="_레이어_1" data-name="레이어 1" xmlns="http://www.w3.org/2000/svg" viewBox="0 0 24 24">
  <defs>
    <style>
      .cls-1 {
        fill: #c7c7c7;
        stroke-width: 0px;
      }
    </style>
  </defs>
  <path class="cls-1" d="M13.86,13.02c0-.33-.28-.6-.6-.6h-.36s-.09-.02-.13,0h-7.99s-.09-.02-.13,0h-.36c-.33,0-.6.28-.6.6v.36s-.02.09,0,.13v2.77s-.02.09,0,.13v.36c0,.33.28.6.6.6h.36s.04.01.07.01.04,0,.07-.01h8.47c.16,0,.32-.06.42-.17.12-.11.18-.26.18-.43v-3.26s.02-.09,0-.13v-.36ZM12.65,16.17h-7.76v-2.55h7.76v2.55Z"/>
  <path class="cls-1" d="M23.88,8.84l-1.13-5.4s0-.1-.03-.14l-.1-.46c-.06-.26-.31-.46-.59-.46H2.3c-.27,0-.51.19-.58.44L.35,7.94c-.02.09-.05.18-.07.27-.05.18-.1.37-.15.57-.06.28-.01.55.06.82.16.67.56,1.2,1.09,1.45.09.04.19.08.3.11v9.36s-.02.09,0,.13v.36c0,.33.28.6.6.6h.36s.09.02.13,0h13.2s.04.01.07.01.04,0,.07-.01h3.42c.26,0,.52,0,.79,0,.26,0,.53,0,.8,0,.3,0,.57,0,.8-.02h.03c.16,0,.32-.06.42-.17.12-.11.18-.26.18-.43v-9.89c.87-.3,1.46-1.11,1.47-2.1,0-.06,0-.12-.02-.17ZM18.86,3.58l.26,2.41.2,1.85c.02.17.04.33.05.5,0,.05.01.11.02.16.02.18.04.35.06.53,0,0,0,0,0,.01-.04.2-.1.37-.19.51-.05.09-.12.16-.19.23-.3.26-.88.37-1.23.11-.11-.08-.2-.2-.27-.33-.09-.17-.15-.36-.16-.56v-.65s-.03-1.31-.03-1.31c0-.44-.01-.88-.02-1.32,0-.7-.02-1.41-.03-2.13h1.53ZM16.12,3.58l.08,4.72s0,0,0,0v.03s.01.63.01.63c0,.02,0,.04,0,.07h0s0,.04,0,.05c-.01.05-.02.1-.03.14-.03.12-.07.22-.13.31,0,0,0,0,0,.01-.13.23-.34.39-.61.44-.48.1-.87-.07-1.08-.46-.05-.09-.1-.2-.13-.32-.04-.15-.04-.17-.04-.24,0,0,0,0,0,0,.01-.2,0-.4,0-.6,0-.02,0-.03,0-.05,0-.08,0-.16,0-.23v-2.18s0-2.35,0-2.35h1.95ZM10.92,7.02c0-.43,0-.87,0-1.3h0c0-.71,0-1.42,0-2.13h2.03v.31s0,3.52,0,3.52h0s0,.93,0,.93v.28c0,.1,0,.2,0,.3,0,.02,0,.04,0,.06v.08s0,0,0,.01c-.02.15-.06.27-.1.37-.01.04-.03.07-.05.1-.13.25-.35.41-.63.46-.47.09-.89-.08-1.09-.44,0,0,0-.02-.01-.02-.06-.11-.1-.24-.13-.39v-.05s-.02-.04-.02-.1v-1.99ZM7.73,8.06l.25-4.47h1.73v4.76s0,.58,0,.58v.05c-.04.19-.11.4-.22.58-.14.23-.33.41-.63.46-.53.1-.82-.19-.99-.46-.09-.15-.14-.29-.16-.37-.02-.06-.03-.12-.04-.18.02-.21.03-.41.04-.62,0-.01,0-.03,0-.04,0-.1,0-.19.01-.29ZM5.27,3.96s.01-.08.02-.11l.04-.26h1.44l-.24,4.19-.03.57v.1s-.01.09-.01.13c0,.09-.01.18-.01.27v.14s0,0,0,0c0,0,0,0,0,0,0,0,0,0,0,.01,0,0,0,0,0,0-.02.14-.06.26-.1.37-.02.06-.05.11-.08.16-.13.24-.33.39-.57.45-.45.11-.88-.05-1.09-.4,0-.02-.02-.03-.03-.05-.06-.12-.11-.25-.15-.4,0-.04-.02-.08-.02-.13l.11-.68.72-4.39ZM1.34,9.26c-.01-.05-.01-.09-.02-.14,0-.03,0-.07-.01-.11.05-.17.09-.35.14-.53.02-.09.05-.17.07-.26l1.24-4.64h1.35s-.13.8-.13.8c-.09.54-.18,1.09-.27,1.63l-.09.53c-.06.37-.12.74-.19,1.12-.02.09-.03.19-.04.29l-.06.39-.08.48s-.02.09-.02.14c-.01.06-.03.12-.04.18-.04.16-.09.3-.16.42-.07.12-.15.21-.25.29-.04.03-.08.06-.13.08-.24.12-.54.15-.79.07-.12-.04-.22-.12-.29-.21-.12-.15-.19-.35-.22-.52ZM16.1,20.4v-6.78h3.31v6.78h-3.31ZM21.23,20.4h-.61v-6.89s.02-.09,0-.13v-.36c0-.33-.28-.6-.6-.6h-.36s-.09-.02-.13,0h-3.54s-.09-.02-.13,0h-.36c-.33,0-.6.28-.6.6v.36s-.02.09,0,.13v6.9H2.97c-.06,0-.13,0-.2,0v-9.24c.41-.11.77-.34,1.05-.64.29.33.65.55,1,.64.21.06.42.09.64.09.55,0,1.06-.19,1.44-.52.07-.06.13-.13.19-.2.26.31.61.56,1.06.66.17.04.34.06.51.06h0c.64,0,1.21-.27,1.63-.73.25.29.57.51.93.62.23.07.48.11.72.11.53,0,1.03-.17,1.4-.47.08-.07.16-.14.23-.22.29.33.67.55,1.1.64.16.03.33.05.49.05.65,0,1.24-.26,1.65-.71.08.09.16.17.25.25.37.3.81.47,1.29.47.08,0,.17,0,.26-.02.55-.06,1.04-.32,1.41-.7.3.36.73.59,1.22.67v9.2ZM22.59,9.49c-.04.09-.09.18-.15.25-.14.16-.34.26-.58.29-.24.03-.45,0-.63-.07-.16-.07-.3-.17-.38-.31-.02-.03-.03-.06-.05-.09-.07-.15-.13-.34-.14-.53,0-.01,0-.03,0-.04,0-.21-.02-.43-.05-.64,0-.07-.02-.15-.03-.22-.06-.65-.14-1.3-.21-1.94-.05-.44-.1-.89-.15-1.33l-.14-1.27h1.48l1.14,5.48c0,.14-.04.28-.11.42Z"/>
</svg>