<?xml version="1.0" encoding="UTF-8"?>
<svg id="_레이어_1" data-name="레이어 1" xmlns="http://www.w3.org/2000/svg" xmlns:xlink="http://www.w3.org/1999/xlink" viewBox="0 0 43 44">
    <defs>
        <style>
            .cls-1 {
            fill: #0080de;
            }

            .cls-2 {
            fill: none;
            }

            .cls-3 {
            clip-path: url(#clippath);
            }
        </style>
        <clipPath id="clippath">
            <rect class="cls-2" x=".38" y=".88" width="42.23" height="42.23"/>
        </clipPath>
    </defs>
    <g class="cls-3">
        <g id="_그룹_2091" data-name="그룹 2091">
            <path id="_패스_5442" data-name="패스 5442" class="cls-1" d="M21.5.88C9.84.88.38,10.34.38,22c0,11.66,9.46,21.12,21.12,21.12,11.66,0,21.12-9.45,21.12-21.12,0-11.66-9.45-21.12-21.11-21.12,0,0,0,0,0,0M23.09,39.85v-1.42c.02-.88-.67-1.61-1.55-1.63s-1.61.67-1.63,1.55c0,.03,0,.05,0,.08v1.42c-8.65-.78-15.51-7.65-16.27-16.31h1.37c.88,0,1.59-.71,1.59-1.59,0-.88-.71-1.59-1.59-1.59h-1.37c.81-8.61,7.64-15.43,16.26-16.21v1.32c.02.88.75,1.58,1.63,1.55.85-.02,1.53-.7,1.55-1.55v-1.32c8.62.78,15.45,7.6,16.26,16.21h-1.37c-.88,0-1.59.71-1.59,1.59s.71,1.59,1.59,1.59h1.37c-.76,8.66-7.61,15.52-16.26,16.31"/>
            <path id="_패스_5443" data-name="패스 5443" class="cls-1" d="M30.99,11.71l-9.44,9.89h-.05c-.12,0-.23.01-.35.03l-7.9-5.97c-.56-.35-1.3-.18-1.65.38-.31.5-.22,1.14.22,1.53l7.9,5.97c.08.99.95,1.72,1.93,1.64.93-.08,1.65-.86,1.65-1.79,0-.05,0-.09,0-.14l9.44-9.89c.5-.44.54-1.2.1-1.69-.44-.5-1.2-.54-1.69-.1-.05.04-.1.09-.14.15"/>
        </g>
    </g>
</svg>