<?xml version="1.0" encoding="UTF-8"?>
<svg id="_레이어_1" data-name=" 레이어 1" xmlns="http://www.w3.org/2000/svg" viewBox="0 0 70.98 75.13">
  <defs>
    <style>
      .cls-1 {
        clip-path: url(#clippath);
      }

      .cls-2 {
        fill: none;
      }

      .cls-2, .cls-3 {
        stroke-width: 0px;
      }

      .cls-3 {
        fill: #c7c7c7;
      }
    </style>
    <clipPath id="clippath">
      <rect class="cls-2" x=".33" y=".35" width="70.32" height="74.43"/>
    </clipPath>
  </defs>
  <g id="_그룹_1183" data-name="그룹 1183">
    <g class="cls-1">
      <g id="_그룹_1182" data-name="그룹 1182">
        <path id="_패스_4560" data-name="패스 4560" class="cls-3" d="M60.76.35H8.61C4.04.36.34,4.06.33,8.63v57.87c0,4.57,3.71,8.27,8.28,8.28h45.05c4.57,0,8.27-3.71,8.28-8.28V23.98c4.9-.54,8.71-4.34,8.71-8.94v-5.67c0-4.97-4.44-9.01-9.89-9.01M55.67,66.5c0,1.11-.9,2-2,2H8.61c-1.11,0-2-.9-2-2V8.63c0-1.11.9-2,2-2h47.06v59.87ZM64.37,15.04c-.15,1.3-1.14,2.35-2.43,2.57V6.8c1.29.23,2.28,1.27,2.43,2.58v5.67Z"/>
        <path id="_패스_4561" data-name="패스 4561" class="cls-3" d="M15.38,19.4h16.59c1.78.06,3.27-1.32,3.34-3.1-.07-1.78-1.56-3.16-3.34-3.1H15.38c-1.78-.06-3.27,1.32-3.34,3.1.07,1.78,1.56,3.16,3.34,3.1"/>
        <path id="_패스_4562" data-name="패스 4562" class="cls-3" d="M15.38,40.28h31.62c1.78.06,3.27-1.32,3.34-3.1-.07-1.78-1.56-3.17-3.34-3.1H15.38c-1.78-.06-3.27,1.32-3.34,3.1.07,1.78,1.56,3.16,3.34,3.1"/>
        <path id="_패스_4563" data-name="패스 4563" class="cls-3" d="M15.38,51.19h31.62c1.71.13,3.2-1.15,3.33-2.86.13-1.71-1.15-3.2-2.86-3.33-.16-.01-.31-.01-.47,0H15.38c-1.71-.13-3.2,1.15-3.33,2.86-.13,1.71,1.15,3.2,2.86,3.33.16.01.31.01.47,0"/>
        <path id="_패스_4564" data-name="패스 4564" class="cls-3" d="M15.38,62.1h31.62c1.71.13,3.21-1.15,3.34-2.86.13-1.71-1.15-3.21-2.86-3.34-.16-.01-.32-.01-.48,0H15.38c-1.71-.13-3.21,1.15-3.34,2.86-.13,1.71,1.15,3.21,2.86,3.34.16.01.32.01.48,0"/>
      </g>
    </g>
  </g>
</svg>