<?xml version="1.0" encoding="UTF-8"?>
<svg id="_레이어_1" data-name=" 레이어 1" xmlns="http://www.w3.org/2000/svg" viewBox="0 0 90.92 75.13">
  <defs>
    <style>
      .cls-1 {
        clip-path: url(#clippath);
      }

      .cls-2 {
        fill: none;
      }

      .cls-2, .cls-3 {
        stroke-width: 0px;
      }

      .cls-3 {
        fill: #c7c7c7;
      }
    </style>
    <clipPath id="clippath">
      <rect class="cls-2" x=".43" y=".35" width="90.07" height="74.43"/>
    </clipPath>
  </defs>
  <g id="_그룹_1179" data-name="그룹 1179">
    <g class="cls-1">
      <g id="_그룹_1178" data-name="그룹 1178">
        <path id="_패스_4556" data-name="패스 4556" class="cls-3" d="M20.55,74.78c-1.12,0-2.17-.52-2.84-1.42-.71-.96-.83-2.23-.32-3.31l3.25-12.76h-9.56c-5.88,0-10.66-4.3-10.66-9.59V9.94C.43,4.65,5.21.35,11.08.35h68.75c5.88,0,10.66,4.3,10.66,9.59v37.75c0,5.29-4.78,9.59-10.66,9.59h-31.66l-25.87,17.01c-.17.11-.36.21-.56.28-.38.14-.79.21-1.2.21M11.08,5.56c-3,0-5.45,1.96-5.45,4.38v37.75c0,2.41,2.44,4.38,5.45,4.38h12.92c1.44,0,2.61,1.17,2.61,2.6,0,.22-.03.43-.08.65l-3.05,11.96,22.48-14.78c.43-.28.92-.43,1.43-.43h32.45c3,0,5.45-1.96,5.45-4.38V9.94c0-2.41-2.44-4.38-5.45-4.38H11.08Z"/>
        <path id="_패스_4557" data-name="패스 4557" class="cls-3" d="M25.17,29.4c0,2.96-2.4,5.36-5.36,5.36s-5.36-2.4-5.36-5.36c0-2.96,2.4-5.36,5.36-5.36,2.96,0,5.36,2.4,5.36,5.36"/>
        <path id="_패스_4558" data-name="패스 4558" class="cls-3" d="M50.82,29.4c0,2.96-2.4,5.36-5.36,5.36s-5.36-2.4-5.36-5.36,2.4-5.36,5.36-5.36h0c2.96,0,5.36,2.4,5.36,5.36"/>
        <path id="_패스_4559" data-name="패스 4559" class="cls-3" d="M76.47,29.4c0,2.96-2.4,5.36-5.36,5.36s-5.36-2.4-5.36-5.36,2.4-5.36,5.36-5.36h0c2.96,0,5.36,2.4,5.36,5.36"/>
      </g>
    </g>
  </g>
</svg>