<?xml version="1.0" encoding="UTF-8"?>
<svg id="_레이어_1" data-name=" 레이어 1" xmlns="http://www.w3.org/2000/svg" viewBox="0 0 68.03 68.03">
  <defs>
    <style>
      .cls-1 {
        clip-path: url(#clippath);
      }

      .cls-2 {
        fill: none;
      }

      .cls-2, .cls-3 {
        stroke-width: 0px;
      }

      .cls-3 {
        fill: #358900;
      }
    </style>
    <clipPath id="clippath">
      <rect class="cls-2" x="8.28" y=".73" width="51.48" height="66.58"/>
    </clipPath>
  </defs>
  <g class="cls-1">
    <g id="_그룹_1384" data-name="그룹 1384">
      <path id="_패스_4598" data-name="패스 4598" class="cls-3" d="M33.97,6.22h.27l.63.02c14.21.55,23.29,14.46,17.66,26.64l-15.5,27.01c-1.17,1.89-3.66,2.48-5.55,1.31-.56-.35-1.03-.82-1.36-1.39l-14.82-27.4c-5.33-12.31,4.1-25.98,18.32-26.19h.35M34,39.35c6.79,0,12.28-5.52,12.27-12.3,0-6.09-4.48-11.26-10.51-12.14-.58-.08-1.17-.12-1.76-.12-6.79-.02-12.3,5.47-12.32,12.26-.01,6.13,4.5,11.34,10.57,12.2.58.08,1.17.12,1.76.12M33.97.73h-.43c-8.62.05-16.65,4.4-21.39,11.61-4.37,6.61-5.09,15-1.89,22.26l.1.22.12.21,14.82,27.4c2.57,4.6,8.37,6.24,12.97,3.68,1.47-.82,2.7-2.02,3.56-3.47l15.5-27.01.12-.21.1-.22c3.37-7.17,2.87-15.57-1.33-22.29C51.65,5.57,43.73,1.01,35.11.75c-.26-.02-.51-.02-.77-.02h-.37ZM34,33.86c-.33,0-.66-.02-.99-.07-3.71-.55-6.27-4.01-5.71-7.72.5-3.32,3.35-5.78,6.71-5.79.34,0,.67.02,1,.07,3.71.55,6.27,4.01,5.71,7.72-.5,3.32-3.35,5.79-6.71,5.79"/>
    </g>
  </g>
</svg>