<svg
        xmlns="http://www.w3.org/2000/svg"
        width="24"
        height="24"
        fill="#707070"

        viewBox="0 0 95.6 97.09"
>
    <path d="M92.99,37.04L50.61,2.04c-1.63-1.34-3.98-1.34-5.61,0L2.62,37.04c-1.43,1.18-1.97,3.14-1.34,4.89.63,1.75,2.29,2.91,4.14,2.91h4.49v46.81c0,2.43,1.97,4.4,4.4,4.4h66.98c2.43,0,4.4-1.97,4.4-4.4v-46.81h4.49c1.86,0,3.52-1.17,4.14-2.91.63-1.75.09-3.7-1.34-4.89ZM47.8,11.15l30.13,24.88H17.67l30.13-24.88ZM60.18,87.25h-24.76v-26.24h24.76v26.24ZM76.89,87.25h-7.9v-30.64c0-2.43-1.97-4.4-4.4-4.4H31.02c-2.43,0-4.4,1.97-4.4,4.4v30.64h-7.9v-42.41h58.17v42.41Z"/>
</svg>
