<svg
        xmlns="http://www.w3.org/2000/svg"
        width="24"
        height="24"
        fill="#707070"
        viewBox="0 0 88.64 111.2"
>
    <path d="M65.71,109.73c-.91,0-1.81-.28-2.58-.84l-22.14-16.12h-4.51c-19.47,0-35.31-15.84-35.31-35.31v-20.68C1.17,17.31,17.01,1.47,36.48,1.47h15.68c19.47,0,35.31,15.84,35.31,35.31v20.68c0,15-7.09,25.62-20.07,30.28l2.64,16.93c.27,1.75-.53,3.49-2.05,4.41-.7.43-1.49.64-2.28.64ZM36.48,10.23c-14.64,0-26.55,11.91-26.55,26.55v20.68c0,14.64,11.91,26.55,26.55,26.55h5.94c.93,0,1.83.29,2.58.84l14.76,10.75-1.6-10.26c-.35-2.24,1.07-4.38,3.27-4.93,11.47-2.86,17.29-10.58,17.29-22.95v-20.68c0-14.64-11.91-26.55-26.55-26.55h-15.68Z"/>
    <path d="M54.91,68.91c-.67,0-1.34-.15-1.96-.46l-9.08-4.53-9.26,4.14c-1.46.65-3.16.46-4.44-.51-1.27-.97-1.92-2.56-1.68-4.14l1.5-10.03-6.8-7.53c-1.07-1.19-1.41-2.87-.89-4.38s1.84-2.62,3.42-2.88l10.01-1.67,5.06-8.79c.8-1.39,2.31-2.22,3.89-2.2,1.6.03,3.05.94,3.79,2.36l4.68,9,9.93,2.1c1.57.33,2.83,1.49,3.29,3.02.46,1.53.05,3.2-1.07,4.34l-7.11,7.23,1.07,10.09c.17,1.59-.54,3.15-1.86,4.06-.75.52-1.62.78-2.5.78ZM43.99,54.69c.67,0,1.34.15,1.96.46l3.77,1.88-.45-4.19c-.14-1.3.31-2.6,1.23-3.54l2.95-3-4.12-.87c-1.28-.27-2.38-1.1-2.98-2.27l-1.94-3.74-2.1,3.65c-.65,1.14-1.78,1.92-3.08,2.14l-4.15.69,2.82,3.13c.88.97,1.28,2.29,1.08,3.59l-.62,4.17,3.84-1.72c.57-.25,1.18-.38,1.79-.38Z"/>
</svg>