<?xml version="1.0" encoding="UTF-8"?>
<svg id="_레이어_1" data-name="레이어 1" xmlns="http://www.w3.org/2000/svg" viewBox="0 0 50.75 53.99">
    <defs>
        <style>
            .cls-1 {
            clip-path: url(#clippath);
            }

            .cls-2 {
            fill: none;
            }

            .cls-2, .cls-3, .cls-4, .cls-5 {
            stroke-width: 0px;
            }

            .cls-3 {
            fill: #cce89c;
            }

            .cls-4 {
            fill: #539335;
            }

            .cls-5 {
            fill: #fff;
            }
        </style>
        <clipPath id="clippath">
            <rect class="cls-2" x="0" y="0" width="50.75" height="53.99"/>
        </clipPath>
    </defs>
    <g id="_그룹_1169" data-name="그룹 1169">
        <g class="cls-1">
            <g id="_그룹_1168" data-name="그룹 1168">
                <path id="_패스_4536" data-name="패스 4536" class="cls-3"
                      d="M50.75,33.35c0,13.35-11.98,20.64-25.99,20.64S0,46.7,0,33.35C-.02,19.64,11.05,8.5,24.76,8.43c14.01,0,25.99,11.57,25.99,24.92"/>
                <path id="_패스_4537" data-name="패스 4537" class="cls-3"
                      d="M32.6,2.17c-.92,0-1.82.25-2.6.72-1.06-2.43-3.9-3.55-6.33-2.49-1.2.52-2.13,1.51-2.59,2.74-.85-.64-1.88-.98-2.94-.98-2.6,0-5.38,2.02-4.7,4.33.7,2.39,4.25,4.32,6.84,4.32.28,0,.57-.03.85-.09.99,2.46,3.8,3.65,6.26,2.66,1.2-.48,2.15-1.43,2.64-2.62.14.02.28.04.43.04,2.6,0,6.15-1.93,6.84-4.32.67-2.31-2.11-4.32-4.7-4.32"/>
                <path id="_패스_4538" data-name="패스 4538" class="cls-4"
                      d="M32.1,11.27h-13.46c-.47.03-.88-.32-.91-.79-.03-.47.32-.88.79-.91.04,0,.08,0,.12,0h13.46c.47.03.82.44.79.91-.03.42-.37.76-.79.79"/>
                <path id="_패스_4539" data-name="패스 4539" class="cls-5"
                      d="M37.26,27.68h-2.29l.84-2.11c.31-.72-.02-1.56-.74-1.87-.72-.31-1.56.02-1.87.74-.01.03-.02.05-.03.08l-1.27,3.17h-4.01l-1.19-3.62s-.04-.06-.05-.09c-.04-.09-.09-.17-.14-.25-.05-.07-.1-.14-.16-.21-.06-.06-.14-.12-.21-.16-.08-.06-.16-.1-.25-.14-.03-.01-.06-.04-.09-.05-.05-.02-.1,0-.16-.02-.09-.02-.19-.03-.29-.03-.1,0-.19.01-.28.03-.05,0-.11,0-.16.02-.03.01-.06.04-.09.05-.09.04-.17.09-.25.14-.07.05-.14.1-.21.16-.06.06-.11.13-.16.21-.06.08-.1.16-.14.25-.01.03-.04.06-.05.09l-1.19,3.62h-4.01l-1.27-3.17c-.29-.73-1.12-1.09-1.85-.79-.73.29-1.09,1.12-.79,1.85l.85,2.11h-2.22c-.79,0-1.43.64-1.43,1.43s.64,1.42,1.43,1.42h3.36l2.94,7.35c.22.54.74.9,1.32.9h.05c.6-.02,1.12-.41,1.31-.98l2.39-7.27h.96l2.39,7.27c.19.57.71.96,1.31.98h.05c.58,0,1.11-.36,1.32-.9l2.94-7.35h3.43c.79,0,1.42-.64,1.42-1.43s-.64-1.42-1.42-1.42M20.99,33.19l-1.06-2.66h1.94l-.88,2.66ZM29.7,33.19l-.87-2.66h1.94l-1.07,2.66Z"/>
            </g>
        </g>
    </g>
</svg>