<?xml version="1.0" encoding="UTF-8"?>
<svg id="_레이어_1" data-name=" 레이어 1" xmlns="http://www.w3.org/2000/svg" viewBox="0 0 24 24">
  <defs>
    <style>
      .cls-1 {
        fill: #3e3a39;
        stroke-width: 0px;
      }
    </style>
  </defs>
  <path class="cls-1" d="M21.5,22.05H2.5c-.47,0-.85-.38-.85-.85V2.8c0-.47.38-.85.85-.85h19.01c.47,0,.85.38.85.85v18.4c0,.47-.38.85-.85.85ZM3.35,20.35h17.31V3.65H3.35v16.7Z"/>
  <path class="cls-1" d="M10.29,11.49h-4.47c-.47,0-.85-.38-.85-.85v-4.47c0-.47.38-.85.85-.85h4.47c.47,0,.85.38.85.85v4.47c0,.47-.38.85-.85.85ZM6.67,9.79h2.77v-2.77h-2.77v2.77Z"/>
  <path class="cls-1" d="M18.12,14.73H5.88c-.47,0-.85-.38-.85-.85s.38-.85.85-.85h12.23c.47,0,.85.38.85.85s-.38.85-.85.85Z"/>
  <path class="cls-1" d="M18.12,18.37H5.88c-.47,0-.85-.38-.85-.85s.38-.85.85-.85h12.23c.47,0,.85.38.85.85s-.38.85-.85.85Z"/>
</svg>