<?xml version="1.0" encoding="UTF-8"?>
<svg id="_레이어_1" data-name=" 레이어 1" xmlns="http://www.w3.org/2000/svg" viewBox="0 0 24 24">
  <defs>
    <style>
      .cls-1 {
        fill: #3e3a39;
        stroke-width: 0px;
      }
    </style>
  </defs>
  <path class="cls-1" d="M13.86,13.02c0-.33-.28-.6-.6-.6h-.36s-.09-.02-.13,0h-7.99s-.09-.02-.13,0h-.36c-.33,0-.6.28-.6.6v.36s-.02.09,0,.13v2.77s-.02.09,0,.13v.36c0,.33.28.6.6.6h.36s.04.01.07.01.04,0,.07-.01h8.47c.16,0,.32-.06.42-.17.12-.11.18-.26.18-.43v-3.26s.02-.09,0-.13c0,0,0-.36,0-.36ZM12.65,16.17h-7.76v-2.55h7.76v2.55Z"/>
  <path class="cls-1" d="M20.31,4.09H3.7c-1.74,0-3.16,1.42-3.16,3.17v9.49c0,1.74,1.42,3.16,3.16,3.16h16.6c1.74,0,3.16-1.42,3.16-3.16V7.26c0-1.74-1.42-3.16-3.16-3.16h0ZM22.29,11.21H1.72v-3.16h20.56v3.16Z"/>
</svg>