<?xml version="1.0" encoding="UTF-8"?>
<svg id="_레이어_1" data-name="레이어 1" xmlns="http://www.w3.org/2000/svg" viewBox="0 0 54.74 61.24">
    <defs>
        <style>
            .cls-1 {
            clip-path: url(#clippath);
            }

            .cls-2 {
            fill: none;
            }

            .cls-2, .cls-3, .cls-4, .cls-5, .cls-6, .cls-7 {
            stroke-width: 0px;
            }

            .cls-3 {
            fill: #7eba6a;
            }

            .cls-8 {
            clip-path: url(#clippath-1);
            }

            .cls-4 {
            fill: #dbdbdb;
            }

            .cls-5 {
            fill: #bcbcbc;
            }

            .cls-6 {
            fill: #707070;
            }

            .cls-7 {
            fill: #fff;
            }
        </style>
        <clipPath id="clippath">
            <rect class="cls-2" y="0" width="54.74" height="61.24"/>
        </clipPath>
        <clipPath id="clippath-1">
            <rect class="cls-2" x="28.79" y="34.2" width="21.66" height="21.66"/>
        </clipPath>
    </defs>
    <g id="_그룹_1165" data-name="그룹 1165">
        <g id="_그룹_1162" data-name="그룹 1162">
            <g class="cls-1">
                <g id="_그룹_1161" data-name="그룹 1161">
                    <path id="_패스_4526" data-name="패스 4526" class="cls-6"
                          d="M41.58,12.9h0c-2.4,0-4.35-1.95-4.35-4.35v-4.2c0-2.4,1.95-4.35,4.35-4.35s4.35,1.95,4.35,4.35v4.2c0,2.4-1.95,4.35-4.35,4.35"/>
                    <path id="_패스_4527" data-name="패스 4527" class="cls-4"
                          d="M37.14,50.43H3.8C1.7,50.43,0,48.73,0,46.63V3.8C0,1.7,1.7,0,3.8,0h0s37.15,0,37.15,0v46.63c0,2.1-1.7,3.8-3.8,3.8"/>
                    <path id="_패스_4528" data-name="패스 4528" class="cls-5"
                          d="M21.19,12.99H6.78c-1.6,0-2.9-1.3-2.9-2.9s1.3-2.9,2.9-2.9h14.4c1.6,0,2.9,1.3,2.9,2.9s-1.3,2.9-2.9,2.9"/>
                    <path id="_패스_4529" data-name="패스 4529" class="cls-5"
                          d="M34.24,25.06H6.78c-1.6,0-2.9-1.3-2.9-2.9s1.3-2.9,2.9-2.9h27.45c1.6,0,2.9,1.3,2.9,2.9s-1.3,2.9-2.9,2.9"/>
                    <path id="_패스_4530" data-name="패스 4530" class="cls-5"
                          d="M34.24,33.75H6.78c-1.6,0-2.9-1.3-2.9-2.9s1.3-2.9,2.9-2.9h27.45c1.6,0,2.9,1.3,2.9,2.9s-1.3,2.9-2.9,2.9"/>
                </g>
            </g>
        </g>
        <g id="_그룹_1164" data-name="그룹 1164">
            <g class="cls-8">
                <g id="_그룹_1163" data-name="그룹 1163">
                    <path id="_패스_4531" data-name="패스 4531" class="cls-3"
                          d="M50.45,45.03c0,5.98-4.85,10.83-10.83,10.83-5.98,0-10.83-4.85-10.83-10.83,0-5.98,4.85-10.83,10.83-10.83h0c5.98,0,10.83,4.85,10.83,10.83"/>
                    <path id="_패스_4532" data-name="패스 4532" class="cls-7"
                          d="M38.12,49.96c-.42,0-.83-.17-1.12-.47l-3.57-3.57c-.62-.62-.62-1.62,0-2.24s1.62-.62,2.24,0l2.52,2.52,5.47-4.81c.66-.58,1.66-.52,2.24.14.58.66.52,1.66-.14,2.24l-6.59,5.79c-.29.26-.66.4-1.05.4"/>
                </g>
            </g>
        </g>
    </g>
</svg>